<?xml version="1.0" standalone="no"?>
<!DOCTYPE svg PUBLIC "-//W3C//DTD SVG 1.1//EN" "http://www.w3.org/Graphics/SVG/1.1/DTD/svg11.dtd" >
<svg xmlns="http://www.w3.org/2000/svg">
<metadata>Generated by IcoMoon</metadata>
<defs>
<font id="ueditor-hg" horiz-adv-x="1024">
<font-face units-per-em="1024" ascent="960" descent="-64" />
<missing-glyph horiz-adv-x="1024" />
<glyph unicode="&#x20;" horiz-adv-x="512" d="" />
<glyph unicode="&#xe900;" glyph-name="html-source" d="M924.746 707.248c-0.256 5.249-1.664 10.369-5.121 14.594l-182.305 228.648c-4.353 5.505-10.754 7.809-17.539 8.449-0.896 0.128-1.408 1.152-2.304 1.152h-593.258c-13.954 0-25.348-11.394-25.348-25.348v-973.486c0-13.954 11.394-25.348 25.348-25.348h775.562c13.954 0 25.348 11.394 25.348 25.348v744.838c0 0.384-0.384 0.768-0.384 1.152zM847.167 731.451h-104.214v130.842l53.896-67.722 50.311-63.113zM149.567-13.395v922.791h542.691v-203.3c0-13.954 11.394-25.348 25.348-25.348h156.83v-694.143h-724.867zM451.832 249.184c-3.072 0-6.273 0.64-9.345 1.792-13.058 5.121-19.331 19.843-14.082 32.901l120.344 301.113c5.249 12.93 20.099 19.203 32.901 14.082 13.058-5.121 19.331-19.843 14.082-32.901l-120.344-301.113c-3.969-9.729-13.442-15.874-23.555-15.874zM349.795 337.517c-6.529 0-12.93 2.432-17.923 7.425l-76.299 76.171c-9.857 9.857-9.857 25.988 0 35.845l76.683 76.683c9.857 9.857 25.988 9.857 35.845 0s9.857-25.988 0-35.845l-58.76-58.76 58.248-58.248c9.857-9.857 9.857-25.988 0-35.845-4.865-4.993-11.394-7.425-17.795-7.425zM666.654 337.517c-6.529 0-12.93 2.432-17.923 7.425-9.857 9.857-9.857 25.988 0 35.845l58.248 58.248-58.76 58.76c-9.857 9.857-9.857 25.988 0 35.845s25.988 9.857 35.845 0l76.683-76.683c9.857-9.857 9.857-25.988 0-35.845l-76.171-76.171c-4.865-4.993-11.394-7.425-17.923-7.425z" />
<glyph unicode="&#xe901;" glyph-name="undo" d="M328.162-64.089c-11.501 0-21.854 7.796-24.793 19.298-3.195 12.779 3.834 25.944 16.23 30.417 5.112 1.789 516.564 185.436 441.928 423.525-52.397 167.033-329.594 145.18-408.701 135.466v-114.763c0-9.969-5.751-19.042-14.824-23.26-9.074-4.090-19.809-2.684-27.222 3.834l-295.982 252.659c-5.751 4.857-8.946 11.885-8.946 19.425s3.195 14.569 8.946 19.425l292.532 250.103c7.541 6.646 18.275 8.052 27.349 3.834s14.824-13.163 14.824-23.26v-106.585c112.974 5.368 524.614 4.345 635.416-314.13 33.227-95.21 25.177-185.053-23.771-266.972-89.46-149.397-312.852-259.048-628.897-308.89-1.534 0-2.812-0.128-4.090-0.128zM460.813 602.765c127.16 0 302.628-28.627 349.53-178.407 51.886-165.755-109.269-300.711-257.642-386.336 179.174 54.698 305.439 134.827 364.482 233.234 40.896 68.245 47.414 143.518 19.425 223.904-112.974 324.481-605.127 278.473-610.111 278.090-7.796-0.511-14.441 1.534-19.681 6.39-5.368 4.857-8.435 11.757-8.435 18.914v78.596l-227.61-194.637 231.061-197.193v81.536c0 12.396 8.946 23.004 21.215 25.177 6.135 1.022 63.772 10.735 137.767 10.735z" />
<glyph unicode="&#xe902;" glyph-name="redo" d="M695.816-64.089c-1.278 0-2.684 0.128-3.962 0.256-316.006 49.707-539.242 159.474-628.817 308.852-49.068 81.782-57.119 171.613-23.896 266.939 110.915 318.307 522.887 319.329 635.46 313.962v106.57c0 9.966 5.751 19.040 14.822 23.257 8.946 4.345 19.679 2.812 27.347-3.834l292.366-250.072c5.751-4.856 8.946-11.883 8.946-19.423s-3.323-14.567-8.946-19.423l-295.944-252.628c-7.54-6.39-18.273-7.924-27.219-3.834-9.074 4.217-14.822 13.161-14.822 23.257v114.749c-79.098 9.583-356.258 31.562-408.649-135.45-74.625-238.186 436.762-421.684 441.874-423.473 12.522-4.345 19.551-17.506 16.228-30.284-2.939-11.627-13.289-19.423-24.791-19.423zM631.287 775.573c-139.156 0-456.185-28.622-543.971-280.483-27.986-80.376-21.468-155.64 19.423-223.875 59.036-98.393 185.285-178.514 364.437-233.204-148.356 85.486-309.491 220.552-257.609 386.289 74.369 237.036 470.624 170.462 487.363 167.523 12.266-2.173 21.212-12.778 21.212-25.174v-81.526l231.032 197.298-227.581 194.614v-78.459c0-7.285-3.067-14.183-8.435-18.912-5.368-4.856-12.905-6.901-19.679-6.39-1.022 0-26.324 2.3-66.19 2.3z" />
<glyph unicode="&#xe903;" glyph-name="bold" d="M719.447-64.091h-555.203c-14.861 0-26.886 12.025-26.886 26.886v970.41c0 14.861 12.025 26.886 26.886 26.886h497.598c4.148 0 8.192-0.945 11.92-2.783 5.986-2.941 147.399-74.198 176.543-216.924 18.589-90.897-12.76-187.991-93.103-288.918 86.381-75.774 129.44-158.007 128.023-244.808-2.521-153.28-143.619-260.877-149.657-265.393-4.62-3.466-10.292-5.356-16.121-5.356zM191.13-10.319h518.812c26.099 21.95 119.883 108.437 121.512 218.133 1.102 73.831-39.804 145.509-121.564 213.301h-518.76v-431.434zM191.13 474.886h515.819c75.984 91.685 106.493 177.331 90.687 254.733-21.11 103.343-118.833 163.468-142.516 176.701h-463.99v-431.434z" />
<glyph unicode="&#xe904;" glyph-name="italic" d="M809.828 960.091h-380.523c-14.863 0-26.891-12.028-26.891-26.891s12.028-26.891 26.891-26.891h156.248l-203.208-916.618h-168.171c-14.863 0-26.891-12.028-26.891-26.891s12.028-26.891 26.891-26.891h380.523c14.863 0 26.891 12.028 26.891 26.891s-12.028 26.891-26.891 26.891h-157.245l203.207 916.618h169.168c14.863 0 26.891 12.028 26.891 26.891s-12.026 26.891-26.89 26.891z" />
<glyph unicode="&#xe905;" glyph-name="underline" d="M512.001 140.292c-321.866 0-352.235 195.926-353.339 204.28l-0.262 588.616c0 14.869 12.032 26.901 26.901 26.901s26.901-12.032 26.901-26.901v-584.991c0.736-2.575 27.216-154.102 299.799-154.102 275.421 0 299.904 156.152 300.115 157.728l-0.262 581.367c0 14.869 12.032 26.901 26.901 26.901s26.901-12.032 26.901-26.901v-584.991c-1.367-11.978-31.737-207.904-353.655-207.904zM863.395-64.092h-702.788c-14.869 0-26.901 12.032-26.901 26.901s12.032 26.901 26.901 26.901h702.788c14.869 0 26.901-12.032 26.901-26.901s-12.033-26.901-26.901-26.901z" />
<glyph unicode="&#xe906;" glyph-name="font-color" d="M975.954-23.203l-409.767 948.821c-9.909 21.33-30.614 34.473-54.082 34.473-0.157 0-0.313 0-0.469 0-23.678-0.157-44.383-13.664-54.239-35.621l-409.35-947.673c-5.842-13.56 0.365-29.258 13.925-35.099 13.299-5.789 29.153 0.417 35.099 13.925l136.36 315.683h557.172l136.327-315.683c4.329-10.066 14.186-16.115 24.512-16.115 3.547 0 7.145 0.677 10.587 2.19 13.56 5.842 19.766 21.539 13.925 35.099zM256.499 324.71l249.765 578.22c1.096 2.503 3.025 3.754 5.737 3.754 2.19-1.826 4.641-1.199 5.477-2.92l250.065-579.056h-511.043z" />
<glyph unicode="&#xe907;" glyph-name="font-border" d="M981.694 960h-939.388c-23.316 0-42.306-20.672-42.306-46.032v-931.936c0-25.36 18.99-46.032 42.306-46.032h939.388c23.316 0 42.306 20.672 42.306 46.032v931.936c0 25.36-18.99 46.032-42.306 46.032zM981.694-20.732l-938.426 2.764-0.962 934.7h939.388l-0.962-2.764 0.962-934.7zM548.777 723.11c-6.731 14.543-20.792 23.437-36.777 23.437-0.12 0-0.24 0-0.24 0-16.105-0.12-30.167-9.254-36.777-24.278l-234.366-542.648c-4.687-10.937 0.24-23.677 11.298-28.364 2.764-1.202 5.649-1.803 8.533-1.803 8.413 0 16.346 4.928 19.831 13.1l74.637 176.916h312.488l76.439-176.916c4.808-10.937 17.427-16.105 28.364-11.298 10.937 4.687 15.985 17.427 11.298 28.364l-234.727 543.489zM373.063 382.738l136.173 322.704 139.418-322.704h-275.591z" />
<glyph unicode="&#xe908;" glyph-name="superscript" d="M636.804 863.732c-9.642 7.264-23.565 5.275-31.002-4.453l-281.52-375.791-281.52 375.79c-7.35 9.771-21.23 11.76-31.002 4.453-9.771-7.35-11.76-21.23-4.453-31.002l289.302-386.176-289.302-386.178c-7.307-9.771-5.318-23.651 4.453-31.002 3.978-2.984 8.648-4.41 13.274-4.41 6.702 0 13.36 3.070 17.728 8.864l281.52 375.79 281.521-375.79c4.367-5.794 11.026-8.864 17.728-8.864 4.627 0 9.296 1.427 13.274 4.41 9.771 7.35 11.76 21.23 4.453 31.002l-289.304 386.178 289.302 386.178c7.308 9.771 5.319 23.651-4.453 31.002zM1013.534 712.183c6.486 4.021 10.464 11.155 10.464 18.808v115.013c0 12.237-9.901 22.138-22.138 22.138h-199.888c-12.237 0-22.138-9.901-22.138-22.138v-80.682c0-12.237 9.901-22.138 22.138-22.138s22.138 9.901 22.138 22.138v58.544h155.613v-80.552l-189.122-117.347c-6.486-4.021-10.464-11.155-10.464-18.808v-114.97c0-12.237 9.901-22.138 22.138-22.138h199.586c12.237 0 22.138 9.901 22.138 22.138v84.141c0 12.237-9.901 22.138-22.138 22.138s-22.138-9.901-22.138-22.138v-62.003h-155.31v80.509l189.121 117.347z" />
<glyph unicode="&#xe909;" glyph-name="subscript" d="M636.804 863.733c-9.642 7.264-23.565 5.275-31.002-4.453l-281.521-375.792-281.521 375.791c-7.35 9.771-21.23 11.76-31.002 4.453-9.771-7.35-11.76-21.23-4.453-31.002l289.303-386.177-289.303-386.179c-7.307-9.771-5.318-23.651 4.453-31.002 3.978-2.984 8.648-4.41 13.274-4.41 6.702 0 13.36 3.070 17.728 8.864l281.521 375.791 281.522-375.791c4.367-5.794 11.026-8.864 17.728-8.864 4.627 0 9.296 1.427 13.274 4.41 9.771 7.35 11.76 21.23 4.453 31.002l-289.305 386.179 289.303 386.179c7.308 9.771 5.319 23.651-4.453 31.002zM1013.535 267.095c6.486 4.021 10.464 11.155 10.464 18.808v115.013c0 12.237-9.901 22.138-22.138 22.138h-199.888c-12.237 0-22.138-9.901-22.138-22.138v-80.682c0-12.237 9.901-22.138 22.138-22.138s22.138 9.901 22.138 22.138v58.544h155.613v-80.552l-189.122-117.347c-6.486-4.021-10.464-11.155-10.464-18.808v-114.97c0-12.237 9.901-22.138 22.138-22.138h199.586c12.237 0 22.138 9.901 22.138 22.138v84.141c0 12.237-9.901 22.138-22.138 22.138s-22.138-9.901-22.138-22.138v-62.003h-155.31v80.509l189.121 117.347z" />
<glyph unicode="&#xe90a;" glyph-name="remove-format" d="M981.855 703.415l-214.414 214.414c-42.145 42.145-110.792 42.041-152.833 0l-583.012-583.012c-20.371-20.319-31.596-47.445-31.596-76.391s11.224-56.072 31.596-76.391l214.413-214.465c21.1-21.048 48.746-31.545 76.392-31.545 27.698 0 55.396 10.497 76.442 31.544l583.012 583.064c42.145 42.145 42.145 110.636 0 152.781zM361.219 5.194c-21.41-21.254-56.176-21.358-77.586 0l-214.413 214.465c-10.29 10.29-16.006 24.060-16.006 38.767s5.717 28.478 16.006 38.767l147.481 147.481 297.754-286.245-153.236-153.235zM944.231 588.258l-392.14-392.191-297.754 286.245 397.894 397.894c21.41 21.462 56.176 21.462 77.586 0l214.413-214.413c21.358-21.359 21.358-56.176 0-77.534z" />
<glyph unicode="&#xe90b;" glyph-name="forma-tmatch" d="M423.7 725.402c-8.248 7.81-17.77 10.837-30.8 11.67-12.022-0.351-23.297-5.44-33.783-16.98-1.316-1.887-132.766-190.506-307.871-290.322-25.14-14.786-40.058-33.213-44.314-54.669-6.932-35.056 16.673-66.295 32.292-86.96l5.178-6.844c33.038-45.236 147.508-139.654 175.325-156.196 49.404-29.221 135.399-19.218 216.129 8.775-30.669-21.675-68.49-41.594-100.693-50.72-28.124-7.986-26.676-29.264-26.105-33.477 4.692-33.783 74.542-51.465 110.651-51.465 71.56 0 265.532 90.778 376.668 211.435 28.607 31.064 47.034 43.699 50.983 47.034 8.38 8.862 12.811 20.402 12.461 32.424-0.308 11.583-5.089 22.245-13.207 29.923l-422.913 406.371zM763.294 240.098c-104.773-113.768-288.084-196.955-343.586-196.955-14.873 0-30.142 3.203-42.602 7.151 69.015 28.080 154.923 88.32 161.593 140.97l5.572 44.007-38.786-21.543c-97.052-53.966-217.401-76.782-262.856-49.974-20.578 12.241-132.372 103.501-161.987 144.042l-5.572 7.459c-11.408 15.137-27.070 35.802-24.043 51.115 1.667 8.38 9.389 16.673 22.772 24.526 183.925 104.862 316.735 295.587 318.884 301.992l425.895-402.071c-0.923-0.614-22.552-15.181-55.284-50.72zM1004.388 483.079l-89.111 84.416 53.133 56.16c12.329 12.987 18.867 30.010 18.384 47.912s-7.897 34.529-20.929 46.858l-138.513 131.23c-13.031 12.286-29.221 19.788-47.912 18.34-17.902-0.483-34.574-7.897-46.858-20.884l-53.22-56.16-93.936 89.022c-18.778 17.813-48.613 17.067-66.427-1.799l-60.153-63.531c-17.813-18.822-17.024-48.613 1.799-66.427l418.919-396.806c8.819-8.38 20.226-12.943 32.292-12.943 0.438 0 0.878 0.044 1.316 0.044 12.505 0.351 24.175 5.528 32.862 14.654l60.153 63.531c17.813 18.823 16.98 48.571-1.798 66.384zM910.495 384.009l-419.008 399.746 63.049 63.575 126.58-119.911 84.109 88.803c4.037 4.256 9.521 6.713 15.4 6.889 3.729 0.702 11.495-1.975 15.839-6.099l138.513-131.23c4.3-4.037 6.757-9.521 6.889-15.444 0.176-5.879-1.975-11.495-6.054-15.795l-84.065-88.803 121.754-115.303 0.044-2.852-63.049-63.577z" />
<glyph unicode="&#xe90c;" glyph-name="auto-typeset" d="M1000.113 28.47h-693.715c38.203 17.303 70.247 35.418 85.253 47.099l-0.798 1.026c8.999 5.039 18.28 9.553 25.933 17.206l522.286 522.286c44.815 44.815 44.815 117.794 0 162.609l-91.68 91.68c-44.908 44.908-117.794 44.815-162.609 0l-522.286-522.285c-12.007-12.007-20.239-26.147-25.811-41.118-24.417-40.792-136.686-238.441-63.581-306.902 14.315-13.382 35.768-18.839 61.045-18.839 4.547 0 9.646 0.863 14.421 1.2 1.526-0.303 2.517-1.715 4.14-1.715h847.412c13.198 0 23.877 10.68 23.877 23.877s-10.679 23.879-23.877 23.879zM718.547 836.616c13.105 13.105 30.311 19.679 47.518 19.679 17.254 0 34.461-6.575 47.566-19.679l91.68-91.68c26.209-26.209 26.209-68.877 0-95.084l-74.538-74.538-188.5 185.029 76.273 76.273zM608.508 726.581l188.5-185.029-413.989-413.99c-26.161-26.209-68.83-26.209-95.084 0l-91.68 91.68c-26.209 26.209-26.209 68.877 0 95.084l412.251 412.252zM105.742 34.951c-25.252 23.63 1.049 106.638 36.513 181.060 5.385-10.812 11.245-21.532 20.239-30.526l91.68-91.68c9.771-9.771 21.27-16.463 33.116-21.969-71.414-31.716-160.826-56.526-181.547-36.882z" />
<glyph unicode="&#xe90d;" glyph-name="blockquote" d="M379.802 492.352h-303.458l321.152 361.229c8.686 9.748 7.808 24.717-1.987 33.401-9.748 8.639-24.717 7.854-33.401-1.987l-356.148-400.589c-2.062-2.316-1.825-5.371-2.818-8.119-0.993-2.616-3.142-4.62-3.142-7.588v-444.666c0-13.074 10.579-23.653 23.653-23.653h356.148c13.074 0 23.653 10.579 23.653 23.653v444.664c0.001 13.074-10.578 23.654-23.652 23.654zM356.147 47.688h-308.839v397.357h308.84v-397.357zM997.618 492.352h-303.456l321.152 361.229c8.686 9.748 7.808 24.717-1.987 33.401-9.748 8.639-24.624 7.854-33.401-1.987l-356.148-400.589c-2.062-2.316-1.825-5.371-2.818-8.119-0.993-2.616-3.142-4.62-3.142-7.588v-444.666c0-13.074 10.579-23.653 23.653-23.653h356.148c13.074 0 23.653 10.579 23.653 23.653v444.664c0.001 13.074-10.579 23.654-23.653 23.654zM973.965 47.688h-308.84v397.357h308.84v-397.357z" />
<glyph unicode="&#xe90e;" glyph-name="paste-plain" d="M1000.943 637.363h-268.62v142.303c0 12.745-10.312 23.057-23.057 23.057h-106.008c-1.126 0-1.801-1.036-2.882-1.193v4.84c0 12.745-10.312 23.057-23.057 23.057h-80.429v42.466c0 12.745-10.312 23.057-23.057 23.057h-221.515c-12.745 0-23.057-10.312-23.057-23.057v-38.908h-68.449c-12.745 0-23.057-10.312-23.057-23.057v-7.52c-0.298 0.011-0.467 0.315-0.765 0.315h-113.933c-12.745 0-23.057-10.312-23.057-23.057v-576.464c0-12.745 10.312-23.057 23.057-23.057h364.585v-156.038c0-12.745 10.312-23.057 23.057-23.057h590.244c12.745 0 23.057 10.312 23.057 23.057v590.198c0 12.745-10.313 23.057-23.057 23.057zM183.87 786.872h68.449c12.745 0 23.057 10.312 23.057 23.057v38.907h175.402v-42.466c0-12.745 10.312-23.057 23.057-23.057h80.429v-56.065h-370.394v59.624zM46.114 226.259v530.351h90.876c0.298 0 0.467 0.304 0.765 0.315v-52.733c0-12.745 10.312-23.057 23.057-23.057h416.508c12.745 0 23.057 10.312 23.057 23.057v53.612c1.081-0.158 1.757-1.193 2.882-1.193h82.951v-119.246h-275.511c-12.745 0-23.057-10.312-23.057-23.057v-388.047h-341.528zM977.886 47.164h-544.13v544.085h544.13v-544.085zM543.77 438.273h139.016v-276.771c0-12.745 10.312-23.057 23.057-23.057s23.057 10.312 23.057 23.057v276.771h145.906c12.745 0 23.057 10.312 23.057 23.057s-10.312 23.057-23.057 23.057h-331.036c-12.745 0-23.057-10.312-23.057-23.057s10.313-23.057 23.057-23.057z" />
<glyph unicode="&#xe90f;" glyph-name="strikethrough" d="M1008.87 477.947h-245.554c2.676 36.843 13.996 66.38 34.682 87.066 41.783 41.68 109.089 41.475 142.125 41.475h3.705c8.336 0 13.276 6.792 13.276 15.128s-8.542 15.128-16.878 15.128c-33.962-0.103-112.794 0.309-163.531-50.325-26.449-26.449-40.548-63.19-43.533-108.472h-72.040c13.996 25.317 18.833 49.914 13.996 73.481-10.189 50.016-59.485 74.819-61.543 75.848s-4.322 1.544-6.689 1.544h-164.046c-8.336 0-15.128-6.792-15.128-15.128v-135.847h-115.058l-59.176 146.859c-2.264 5.763-7.822 9.468-13.996 9.468h-35.711c-6.381 0-12.041-4.014-14.202-10.086l-52.281-146.242h-122.16c-8.336 0-15.128-6.792-15.128-15.128s6.792-15.128 15.128-15.128h111.251l-59.485-166.413c-2.779-7.822 1.235-16.466 9.159-19.348 1.647-0.617 3.396-0.926 5.043-0.926 6.175 0 12.041 3.808 14.202 10.086l42.915 119.998h176.807l48.576-120.513c3.087-7.719 12.041-11.526 19.657-8.336 7.719 3.087 11.526 11.938 8.336 19.657l-66.894 165.898h102.915v-153.754c0-8.336 6.792-15.128 15.128-15.128h182.982c3.293 0 6.484 1.029 9.056 2.985 2.058 1.544 50.943 38.799 51.869 92.314 0.412 25.934-10.909 50.531-32.624 73.481h78.318c6.587-168.677 130.599-175.778 198.316-179.38l12.041-0.72c0.309 0 0.617 0 1.029 0 7.924 0 14.511 6.175 15.026 14.099 0.515 8.336-5.763 15.54-14.099 16.055l-12.453 0.72c-65.659 3.499-163.531 9.159-169.706 149.226h246.172c8.336 0 15.128 6.792 15.128 15.128 0.206 8.439-6.484 15.231-14.923 15.231zM214.369 604.017h14.82l50.84-126.070h-110.736l45.077 126.070zM149.018 421.241l9.468 26.449h133.789l10.6-26.449h-153.857zM457.968 598.563h145.007c8.954-5.249 36.535-23.67 42.504-53.413 4.117-20.377-3.19-43.018-20.48-67.306h-167.030v120.719zM656.49 374.826c-0.412-31.492-26.346-57.221-36.123-65.762h-162.399v129.672h162.399c24.288-20.686 36.432-42.092 36.123-63.91z" />
<glyph unicode="&#xe910;" glyph-name="back-color" d="M999.584 820.178h-61.946v107.965c0 13.496-10.92 24.416-24.416 24.416h-820.421c-13.496 0-24.416-10.92-24.416-24.416v-107.965h-43.969c-13.496 0-24.416-10.92-24.416-24.416s10.92-24.416 24.416-24.416h43.969v-108.013c0-13.496 10.92-24.416 24.416-24.416h820.421c13.496 0 24.416 10.92 24.416 24.416v108.013h37.53v-192.038h-443.354c-13.496 0-24.416-10.92-24.416-24.416v-221.271h-43.969c-13.496 0-24.416-10.92-24.416-24.416v-341.349c0-13.496 10.92-24.416 24.416-24.416h133.145c13.496 0 24.416 10.92 24.416 24.416v341.347c0 13.496-10.92 24.416-24.416 24.416h-40.343v196.856h443.354c13.496 0 24.416 10.92 24.416 24.416v240.872c0 13.496-10.921 24.416-24.417 24.416zM888.805 687.75h-771.588v215.977h771.588v-215.977zM572.159-7.729h-84.312v292.517h84.312v-292.517z" />
<glyph unicode="&#xe911;" glyph-name="insert-ordered-list" d="M267.418 807.754h733.902c12.536 0 22.68 10.143 22.68 22.68s-10.143 22.68-22.68 22.68h-733.902c-12.536 0-22.68-10.143-22.68-22.68s10.143-22.68 22.68-22.68zM1001.319 462.066h-733.902c-12.536 0-22.68-10.143-22.68-22.68s10.143-22.68 22.68-22.68h733.902c12.536 0 22.68 10.143 22.68 22.68s-10.145 22.68-22.68 22.68zM1001.319 70.972h-733.902c-12.536 0-22.68-10.143-22.68-22.68s10.143-22.68 22.68-22.68h733.902c12.536 0 22.68 10.143 22.68 22.68s-10.145 22.68-22.68 22.68zM52.846 716.149c12.536 0 22.68 10.143 22.68 22.68v172.402c0 12.536-10.143 22.68-22.68 22.68s-22.68-10.143-22.68-22.68v-172.402c0-12.535 10.143-22.68 22.68-22.68zM96.256 379.408h-50.542v19.801l54.706 54.661c4.253 4.253 6.645 10.011 6.645 16.035v67.241c0 12.536-10.143 22.68-22.68 22.68h-61.704c-12.536 0-22.68-10.143-22.68-22.68v-37.962c0-12.536 10.143-22.68 22.68-22.68s22.68 10.143 22.68 22.68v15.282h16.345v-35.171l-54.706-54.661c-4.253-4.253-6.645-10.011-6.645-16.035v-51.871c0-12.536 10.143-22.68 22.68-22.68h73.222c12.536 0 22.68 10.143 22.68 22.68s-10.143 22.68-22.68 22.68zM96.256 175.689h-73.576c-12.536 0-22.68-10.143-22.68-22.68s10.143-22.68 22.68-22.68h50.897v-38.76h-50.897c-12.536 0-22.68-10.143-22.68-22.68s10.143-22.68 22.68-22.68h50.897v-38.76h-50.897c-12.536 0-22.68-10.143-22.68-22.68s10.143-22.68 22.68-22.68h73.576c12.536 0 22.68 10.143 22.68 22.68v168.239c0 12.536-10.143 22.68-22.68 22.68z" />
<glyph unicode="&#xe912;" glyph-name="insert-unordered-list" d="M357.597 880.638h639.768c14.722 0 26.635 11.913 26.635 26.635s-11.912 26.635-26.634 26.635h-639.769c-14.722 0-26.635-11.913-26.635-26.635s11.913-26.635 26.635-26.635zM192.013 933.909h-165.378c-14.722 0-26.635-11.913-26.635-26.635s11.913-26.635 26.635-26.635h165.377c14.722 0 26.635 11.913 26.635 26.635s-11.912 26.635-26.634 26.635zM192.013 474.66h-165.378c-14.722 0-26.635-11.913-26.635-26.635s11.913-26.635 26.635-26.635h165.377c14.722 0 26.635 11.913 26.635 26.635s-11.912 26.635-26.634 26.635zM192.013 15.36h-165.378c-14.722 0-26.635-11.913-26.635-26.635s11.913-26.635 26.635-26.635h165.377c14.722 0 26.635 11.913 26.635 26.635s-11.912 26.635-26.634 26.635zM997.365 474.66h-639.769c-14.722 0-26.635-11.913-26.635-26.635s11.913-26.635 26.635-26.635h639.768c14.722 0 26.635 11.913 26.635 26.635s-11.912 26.635-26.634 26.635zM997.365 15.36h-639.769c-14.722 0-26.635-11.913-26.635-26.635s11.913-26.635 26.635-26.635h639.768c14.722 0 26.635 11.913 26.635 26.635s-11.912 26.635-26.634 26.635z" />
<glyph unicode="&#xe913;" glyph-name="select-all" d="M52.022 137.582h760.81c13.433 0 24.302 10.869 24.302 24.302v337.329c0 13.433-10.869 24.302-24.302 24.302s-24.302-10.869-24.302-24.302v-313.028h-712.205v712.253h640.25c13.433 0 24.302 10.869 24.302 24.302s-10.87 24.302-24.302 24.302h-664.552c-13.433 0-24.302-10.869-24.302-24.302v-760.857c0.001-13.432 10.87-24.301 24.302-24.301zM998.559 637.002c-13.433 0-24.302-10.869-24.302-24.302v-617.561h-949.955c-13.433 0-24.302-10.869-24.302-24.302s10.869-24.301 24.302-24.301h974.257c13.433 0 24.302 10.869 24.302 24.302v641.863c0 13.432-10.869 24.301-24.302 24.301zM297.177 629.504c-9.303 9.682-24.681 10.063-34.365 0.759s-10.015-24.681-0.759-34.365l202.578-211.454c4.604-4.746 10.3-8.354 17.561-7.499 6.502 0 12.72 2.61 17.277 7.215l515.085 521.494c9.446 9.54 9.351 24.966-0.19 34.365-9.587 9.446-24.966 9.351-34.365-0.19l-497.522-503.741-185.301 193.418z" />
<glyph unicode="&#xe914;" glyph-name="clear-doc" d="M924.711 707.276c-0.253 5.216-1.721 10.315-5.117 14.565l-182.215 228.696c-4.381 5.476-10.804 7.784-17.48 8.434-0.891 0.092-1.417 1.12-2.32 1.12h-593.373c-14.008 0-25.345-11.336-25.345-25.345v-973.492c0-14.010 11.336-25.345 25.345-25.345h775.587c14.010 0 25.345 11.335 25.345 25.345v744.796c0 0.446-0.403 0.786-0.428 1.225zM847.174 731.395h-104.25v130.857l104.25-130.857zM149.551-13.402v922.802h542.683v-203.351c0-14.008 11.336-25.345 25.345-25.345h156.87v-694.106h-724.897z" />
<glyph unicode="&#xe915;" glyph-name="row-spacing-top" d="M24.338 435.4h975.324c13.405 0 24.338 10.885 24.338 24.338s-10.933 24.338-24.338 24.338h-975.324c-13.405 0-24.338-10.885-24.338-24.338s10.933-24.338 24.338-24.338zM24.338 271.404h683.839c13.405 0 24.338 10.885 24.338 24.338s-10.933 24.338-24.338 24.338h-683.839c-13.405 0-24.338-10.885-24.338-24.338s10.933-24.338 24.338-24.338zM999.662 156.132h-975.324c-13.405 0-24.338-10.885-24.338-24.338s10.933-24.338 24.338-24.338h975.324c13.405 0 24.338 10.885 24.338 24.338s-10.933 24.338-24.338 24.338zM706.846-7.817h-682.508c-13.405 0-24.338-10.885-24.338-24.338s10.933-24.338 24.338-24.338h682.508c13.405 0 24.338 10.885 24.338 24.338s-10.933 24.338-24.338 24.338zM419.925 784.973l67.785 78.624v-301.468c0-13.453 10.933-24.338 24.338-24.338s24.338 10.885 24.338 24.338v300.546l65.598-77.559c4.753-5.656 11.599-8.604 18.539-8.604 5.61 0 11.123 1.902 15.686 5.752 10.267 8.7 11.599 24.053 2.851 34.32l-108.475 128.249c-0.743 0.879-2.003 0.719-2.834 1.462-2.27 2.073-4.249 4.499-7.243 5.621-1.325 0.493-2.704-0.048-4.065 0.202-1.907 0.375-3.41 0.357-5.347 0.267-4.135-0.19-7.731-1.409-11.314-3.607-1.076-0.653-2.43-0.256-3.423-1.093-0.458-0.392-0.344-1.069-0.767-1.486-0.588-0.546-1.45-0.612-1.99-1.225l-110.566-128.249c-8.746-10.173-7.606-25.526 2.566-34.32 10.268-8.793 25.479-7.653 34.321 2.568z" />
<glyph unicode="&#xe916;" glyph-name="row-spacing-bottom" d="M999.66 461.073h-975.32c-13.406 0-24.34-10.887-24.34-24.34s10.934-24.34 24.34-24.34h975.32c13.406 0 24.34 10.887 24.34 24.34s-10.934 24.34-24.34 24.34zM999.66 625.037h-683.809c-13.406 0-24.34-10.887-24.34-24.34s10.934-24.34 24.34-24.34h683.809c13.406 0 24.34 10.887 24.34 24.34s-10.934 24.34-24.34 24.34zM999.66 789.048h-975.32c-13.406 0-24.34-10.887-24.34-24.34s10.934-24.34 24.34-24.34h975.32c13.406 0 24.34 10.887 24.34 24.34s-10.934 24.34-24.34 24.34zM315.852 904.331h683.809c13.406 0 24.34 10.887 24.34 24.34s-10.934 24.34-24.34 24.34h-683.809c-13.406 0-24.34-10.887-24.34-24.34s10.935-24.34 24.34-24.34zM604.132 111.468l-67.792-78.63v301.496c0 13.454-10.934 24.34-24.34 24.34s-24.34-10.887-24.34-24.34v-300.574l-65.605 77.566c-8.557 10.221-24.055 11.504-34.228 2.852-10.268-8.7-11.6-24.055-2.852-34.323l108.485-128.262c0.606-0.725 1.699-0.463 2.371-1.1 2.36-2.264 4.522-4.79 7.708-5.984 2.757-1.045 5.609-1.521 8.461-1.521 5.609 0 11.124 1.901 15.688 5.752 0.588 0.499 0.446 1.355 0.975 1.895 0.494 0.481 1.326 0.285 1.783 0.814l110.577 128.262c8.747 10.173 7.607 25.528-2.567 34.323-9.984 8.701-25.483 7.608-34.324-2.565z" />
<glyph unicode="&#xe917;" glyph-name="line-height" d="M984.26 394.399h-612.93c-13.919 0-25.272-11.303-25.272-25.272s11.353-25.272 25.272-25.272h612.932c13.919 0 25.272 11.303 25.272 25.272s-11.354 25.272-25.273 25.272zM371.33 514.142h411.352c13.919 0 25.272 11.303 25.272 25.272s-11.353 25.272-25.272 25.272h-411.352c-13.919 0-25.272-11.303-25.272-25.272s11.353-25.272 25.272-25.272zM371.33 684.378h612.932c13.919 0 25.272 11.303 25.272 25.272s-11.353 25.272-25.272 25.272h-612.932c-13.919 0-25.272-11.303-25.272-25.272s11.353-25.272 25.272-25.272zM371.33 854.616h411.352c13.919 0 25.272 11.303 25.272 25.272s-11.353 25.272-25.272 25.272h-411.352c-13.919 0-25.272-11.303-25.272-25.272s11.353-25.272 25.272-25.272zM782.681 53.876h-411.352c-13.919 0-25.272-11.303-25.272-25.272s11.353-25.272 25.272-25.272h411.352c13.919 0 25.272 11.303 25.272 25.272 0 13.968-11.353 25.272-25.272 25.272zM984.26 224.162h-612.93c-13.919 0-25.272-11.303-25.272-25.272s11.353-25.272 25.272-25.272h612.932c13.919 0 25.272 11.303 25.272 25.272s-11.354 25.272-25.273 25.272zM251.092 110.835l-70.385-81.639v313.032c0 13.968-11.353 25.272-25.272 25.272s-25.272-11.303-25.272-25.272v-312.074l-68.114 80.534c-8.884 10.661-24.876 11.895-35.538 2.961-10.661-9.033-12.044-24.975-2.961-35.636l112.636-133.169c0.63-0.753 1.764-0.481 2.462-1.142 2.449-2.35 4.696-4.973 8.002-6.213 2.862-1.086 5.825-1.58 8.786-1.58 5.825 0 11.55 1.974 16.288 5.972 0.611 0.518 0.462 1.407 1.011 1.968 0.512 0.499 1.376 0.296 1.851 0.845l114.807 133.169c9.082 10.563 7.897 26.506-2.665 35.636-10.463 9.034-26.455 7.899-35.636-2.664zM61.951 786.156l70.385 81.639v-313.031c0-13.968 11.353-25.272 25.272-25.272s25.272 11.303 25.272 25.272v312.073l68.114-80.534c4.936-5.873 12.044-8.934 19.25-8.934 5.825 0 11.55 1.974 16.288 5.972 10.661 9.033 12.044 24.975 2.961 35.636l-112.636 133.169c-0.771 0.919-2.092 0.746-2.956 1.523-2.35 2.147-4.405 4.665-7.508 5.83-1.357 0.512-2.795-0.044-4.195 0.216-1.963 0.376-3.51 0.37-5.516 0.278-4.319-0.186-8.057-1.456-11.81-3.757-1.116-0.672-2.523-0.265-3.554-1.129-0.481-0.407-0.358-1.111-0.796-1.543-0.611-0.574-1.512-0.635-2.067-1.271l-114.805-133.166c-9.082-10.563-7.897-26.506 2.665-35.636 10.563-9.181 26.555-8.046 35.636 2.665z" />
<glyph unicode="&#xe918;" glyph-name="fullscreen" d="M992.739 160.253c14.034 0 25.48 11.397 25.48 25.48v748.878c0 14.084-11.447 25.48-25.48 25.48h-961.478c-14.034 0-25.48-11.397-25.48-25.48v-748.878c0-14.084 11.447-25.48 25.48-25.48h455.259v-173.384h-455.259c-14.034 0-25.48-11.397-25.48-25.48s11.447-25.48 25.48-25.48h961.478c14.034 0 25.48 11.397 25.48 25.48s-11.447 25.48-25.48 25.48h-455.259v173.384h455.259zM56.741 909.131h910.518v-697.918h-910.518v697.918zM871.21 841.35h-718.321c-14.034 0-25.48-11.397-25.48-25.48v-511.446c0-14.084 11.447-25.48 25.48-25.48h718.321c14.034 0 25.48 11.397 25.48 25.48v511.446c0 14.084-11.447 25.48-25.48 25.48zM845.73 329.905h-667.362v460.485h667.362v-460.485z" />
<glyph unicode="&#xe919;" glyph-name="direction-alityltr" d="M997.773 327.012h-531.185c-14.496 0-26.226-11.73-26.226-26.226s11.73-26.226 26.226-26.226h531.185c14.496 0 26.226 11.73 26.226 26.226s-11.73 26.226-26.226 26.226zM466.589 569.040h425.868c14.496 0 26.226 11.73 26.226 26.226s-11.73 26.226-26.226 26.226h-425.868c-14.496 0-26.226-11.73-26.226-26.226s11.73-26.226 26.226-26.226zM466.589 863.47h321.988c14.496 0 26.226 11.73 26.226 26.226s-11.73 26.227-26.226 26.227h-321.988c-14.496 0-26.226-11.73-26.226-26.226s11.73-26.227 26.226-26.227zM788.578 32.53h-321.988c-14.496 0-26.226-11.73-26.226-26.226s11.73-26.227 26.226-26.227h321.988c14.496 0 26.226 11.73 26.226 26.226s-11.73 26.227-26.226 26.227zM347.087 446.413c-0.422 0.5-1.172 0.371-1.626 0.833-0.583 0.608-0.647 1.524-1.294 2.087l-138.2 119.093c-10.859 9.322-27.558 8.144-36.983-2.767-9.425-10.962-8.196-27.507 2.767-36.983l84.723-72.992h-230.248c-14.496 0-26.226-11.73-26.226-26.226s11.73-26.226 26.226-26.226h229.217l-83.538-70.688c-11.064-9.374-12.396-25.919-3.073-36.983 5.174-6.096 12.601-9.272 20.028-9.272 5.993 0 12.037 2.050 16.955 6.198l138.2 116.942c0.979 0.833 0.8 2.228 1.626 3.163 2.209 2.433 4.809 4.533 6.006 7.748 0.531 1.428-0.044 2.9 0.225 4.367 0.404 2.074 0.391 3.707 0.295 5.814-0.199 4.482-1.524 8.349-3.899 12.198-0.705 1.159-0.277 2.626-1.179 3.695z" />
<glyph unicode="&#xe91a;" glyph-name="direction-alityltr2" d="M557.436 327.006h-531.209c-14.497 0-26.227-11.73-26.227-26.227s11.73-26.227 26.227-26.227h531.209c14.497 0 26.227 11.73 26.227 26.227s-11.73 26.227-26.227 26.227zM557.436 621.503h-425.89c-14.497 0-26.227-11.73-26.227-26.227s11.73-26.227 26.227-26.227h425.89c14.497 0 26.227 11.73 26.227 26.227s-11.73 26.227-26.227 26.227zM557.436 915.946h-322.004c-14.497 0-26.227-11.73-26.227-26.227s11.73-26.227 26.227-26.227h322.004c14.497 0 26.227 11.73 26.227 26.227s-11.73 26.227-26.227 26.227zM557.436 32.51h-322.004c-14.497 0-26.227-11.73-26.227-26.227s11.73-26.228 26.227-26.228h322.004c14.497 0 26.227 11.73 26.227 26.227s-11.73 26.228-26.227 26.228zM997.77 455.685h-230.209l84.728 72.996c10.963 9.477 12.191 26.023 2.767 36.985-9.323 10.911-26.023 12.089-36.985 2.767l-138.258-119.101c-0.647-0.564-0.711-1.473-1.294-2.087-0.455-0.461-1.198-0.333-1.626-0.833-0.909-1.069-0.481-2.535-1.185-3.701-2.363-3.829-3.689-7.684-3.893-12.147-0.103-2.139-0.109-3.803 0.301-5.897 0.269-1.453-0.308-2.913 0.218-4.329 1.197-3.208 3.79-5.302 6-7.735 0.826-0.935 0.647-2.343 1.633-3.176l138.258-116.948c4.968-4.15 10.963-6.198 16.956-6.198 7.427 0 14.855 3.176 20.029 9.272 9.374 11.065 7.991 27.611-3.073 36.985l-83.575 70.691h229.21c14.497 0 26.227 11.73 26.227 26.227s-11.73 26.227-26.227 26.227z" />
<glyph unicode="&#xe91b;" glyph-name="indent" d="M953.579 271.43h-883.158c-14.881 0-26.922-12.041-26.922-26.921s12.042-26.921 26.922-26.921h883.158c14.881 0 26.921 12.041 26.921 26.921s-12.041 26.921-26.921 26.921zM953.579 553.109h-883.158c-14.881 0-26.922-12.042-26.922-26.922s12.042-26.922 26.922-26.922h883.158c14.881 0 26.921 12.042 26.921 26.922 0.001 14.882-12.041 26.922-26.921 26.922zM512 780.946h441.579c14.881 0 26.921 12.042 26.921 26.922s-12.041 26.922-26.921 26.922h-441.579c-14.881 0-26.922-12.042-26.922-26.922s12.042-26.922 26.922-26.922zM953.579-10.248h-883.158c-14.881 0-26.922-12.042-26.922-26.922s12.042-26.921 26.922-26.921h883.158c14.881 0 26.921 12.042 26.921 26.921 0.001 14.882-12.041 26.922-26.921 26.922zM70.421 780.946h235.25l-85.76-72.51c-11.358-9.623-12.777-26.606-3.155-37.963 5.311-6.257 12.935-9.517 20.559-9.517 6.152 0 12.303 2.104 17.404 6.363l141.918 119.992c1.012 0.854 0.828 2.3 1.676 3.26 2.267 2.498 4.93 4.647 6.159 7.939 0.539 1.453-0.052 2.951 0.223 4.443 0.421 2.149 0.414 3.859 0.309 6.053-0.211 4.581-1.571 8.538-3.996 12.468-0.722 1.196-0.282 2.701-1.216 3.799-0.434 0.513-1.202 0.375-1.67 0.848-0.599 0.631-0.657 1.571-1.327 2.149l-141.917 122.304c-11.147 9.517-28.236 8.518-37.963-2.839-9.675-11.253-8.413-28.236 2.84-37.963l87.023-74.981h-236.355c-14.881 0-26.922-12.042-26.922-26.922s12.042-26.922 26.922-26.922z" />
<glyph unicode="&#xe91c;" glyph-name="justify-left" d="M957.45 377.429h-742.826c-13.908 0-25.163-11.254-25.163-25.163s11.254-25.162 25.163-25.162h742.826c13.908 0 25.163 11.254 25.163 25.162s-11.254 25.163-25.163 25.163zM214.624 515.182h465.403c13.908 0 25.162 11.254 25.162 25.163s-11.254 25.163-25.162 25.163h-465.403c-13.908 0-25.163-11.254-25.163-25.163s11.254-25.163 25.163-25.163zM214.624 703.21h742.826c13.908 0 25.163 11.254 25.163 25.163s-11.254 25.163-25.163 25.163h-742.826c-13.908 0-25.163-11.254-25.163-25.163s11.254-25.163 25.163-25.163zM214.624 891.288h465.403c13.908 0 25.162 11.254 25.162 25.163s-11.254 25.163-25.162 25.163h-465.403c-13.908 0-25.163-11.254-25.163-25.163s11.254-25.163 25.163-25.163zM680.027 1.274h-465.403c-13.908 0-25.163-11.254-25.163-25.163s11.254-25.162 25.163-25.162h465.403c13.908 0 25.162 11.254 25.162 25.162s-11.254 25.163-25.162 25.163zM957.45 189.351h-742.826c-13.908 0-25.163-11.254-25.163-25.163s11.254-25.162 25.163-25.162h742.826c13.908 0 25.163 11.254 25.163 25.162 0 13.91-11.254 25.163-25.163 25.163zM66.55 960.091c-13.908 0-25.163-11.254-25.163-25.163v-973.856c0-13.908 11.254-25.163 25.163-25.163s25.163 11.254 25.163 25.163v973.856c-0.001 13.908-11.256 25.163-25.163 25.163z" />
<glyph unicode="&#xe91d;" glyph-name="justify-right" d="M809.425 377.429h-742.874c-13.908 0-25.163-11.254-25.163-25.163s11.254-25.162 25.163-25.162h742.876c13.908 0 25.163 11.254 25.163 25.162s-11.256 25.163-25.164 25.163zM809.425 565.507h-465.452c-13.908 0-25.163-11.254-25.163-25.163s11.254-25.163 25.163-25.163h465.452c13.908 0 25.163 11.254 25.163 25.163s-11.254 25.163-25.163 25.163zM809.425 753.535h-742.874c-13.908 0-25.163-11.254-25.163-25.163s11.254-25.163 25.163-25.163h742.876c13.908 0 25.163 11.254 25.163 25.163s-11.256 25.163-25.164 25.163zM809.425 941.613h-465.452c-13.908 0-25.163-11.254-25.163-25.163s11.254-25.163 25.163-25.163h465.452c13.908 0 25.163 11.254 25.163 25.163s-11.254 25.163-25.163 25.163zM809.425 1.274h-465.452c-13.908 0-25.163-11.254-25.163-25.163s11.254-25.162 25.163-25.162h465.452c13.908 0 25.163 11.254 25.163 25.162s-11.254 25.163-25.163 25.163zM809.425 189.351h-742.874c-13.908 0-25.163-11.254-25.163-25.163s11.254-25.162 25.163-25.162h742.876c13.908 0 25.163 11.254 25.163 25.162-0.001 13.91-11.256 25.163-25.164 25.163zM957.45 960.091c-13.908 0-25.162-11.254-25.162-25.163v-973.856c0-13.908 11.254-25.163 25.162-25.163s25.163 11.254 25.163 25.163v973.856c0 13.908-11.254 25.163-25.163 25.163z" />
<glyph unicode="&#xe91e;" glyph-name="justify-center" d="M999.37 380.602h-974.74c-13.614 0-24.63-11.016-24.63-24.63s11.016-24.63 24.63-24.63h974.739c13.614 0 24.63 11.016 24.63 24.63s-11.015 24.63-24.629 24.63zM206.618 564.707c-13.614 0-24.63-11.016-24.63-24.63s11.016-24.63 24.63-24.63h610.715c13.614 0 24.63 11.016 24.63 24.63s-11.016 24.63-24.63 24.63h-610.715zM24.63 699.551h974.739c13.614 0 24.63 11.016 24.63 24.63s-11.016 24.63-24.63 24.63h-974.739c-13.614 0-24.63-11.016-24.63-24.63s11.016-24.63 24.63-24.63zM206.618 883.607h610.715c13.614 0 24.63 11.016 24.63 24.63s-11.016 24.631-24.63 24.631h-610.715c-13.614 0-24.63-11.016-24.63-24.63s11.016-24.631 24.63-24.631zM817.333 12.393h-610.715c-13.614 0-24.63-11.016-24.63-24.631s11.016-24.63 24.63-24.63h610.715c13.614 0 24.63 11.016 24.63 24.63s-11.016 24.631-24.63 24.631zM999.37 196.498h-974.74c-13.614 0-24.63-11.016-24.63-24.63s11.016-24.631 24.63-24.631h974.739c13.614 0 24.63 11.016 24.63 24.631s-11.015 24.63-24.629 24.63z" />
<glyph unicode="&#xe91f;" glyph-name="justify-justify" d="M999.371 380.605h-974.742c-13.613 0-24.629-11.016-24.629-24.629s11.016-24.629 24.629-24.629h974.741c13.613 0 24.629 11.016 24.629 24.629s-11.014 24.629-24.628 24.629zM999.371 748.798h-974.742c-13.613 0-24.629-11.016-24.629-24.629s11.016-24.629 24.629-24.629h974.741c13.613 0 24.629 11.016 24.629 24.629s-11.014 24.629-24.628 24.629zM999.371 196.51h-974.742c-13.613 0-24.629-11.016-24.629-24.629s11.016-24.63 24.629-24.63h974.741c13.613 0 24.629 11.016 24.629 24.63 0.001 13.613-11.014 24.629-24.628 24.629zM24.629 883.586h974.741c13.613 0 24.629 11.016 24.629 24.629s-11.014 24.63-24.628 24.63h-974.742c-13.613 0-24.629-11.016-24.629-24.629s11.016-24.63 24.629-24.63zM999.371 564.701h-974.742c-13.613 0-24.629-11.016-24.629-24.629s11.016-24.629 24.629-24.629h974.741c13.613 0 24.629 11.016 24.629 24.629s-11.014 24.629-24.628 24.629zM999.371 12.414h-974.742c-13.613 0-24.629-11.016-24.629-24.63s11.016-24.629 24.629-24.629h974.741c13.613 0 24.629 11.016 24.629 24.629s-11.014 24.63-24.628 24.63z" />
<glyph unicode="&#xe920;" glyph-name="touppercase" d="M359.072 637.529c-7.467 16.053-23.028 25.98-40.691 25.98-19.362 1.789-33.671-10.151-41.049-26.784l-272.322-630.409c-5.009-11.626 0.313-25.085 11.939-30.094 11.537-5.052 25.041 0.403 30.094 11.939l88.65 206.901h364.616l89.365-206.901c3.756-8.631 12.163-13.817 21.016-13.817 3.040 0 6.126 0.582 9.077 1.878 11.626 5.009 16.947 18.468 11.939 30.094l-272.633 631.214zM155.311 240.852l161.95 377.986 163.264-377.986h-325.215zM1001.106 362.346c-12.655 0-22.894-10.24-22.894-22.894v-47.432c-35.616 42.609-88.471 70.328-148.234 70.328-106.961 0-193.979-87.018-193.979-194.023 0-106.961 87.018-193.979 193.979-193.979 59.763 0 112.618 27.718 148.234 70.316v-47.422c0-12.655 10.24-22.894 22.894-22.894s22.894 10.24 22.894 22.894v342.212c0 12.655-10.24 22.894-22.894 22.894zM829.976 20.134c-81.697 0-148.189 66.492-148.189 148.189 0 81.741 66.492 148.234 148.189 148.234 81.741 0 148.234-66.492 148.234-148.234 0-81.697-66.492-148.189-148.234-148.189zM533.676 791.196c0.235-1.269-0.268-2.543 0.19-3.779 1.045-2.8 3.309-4.628 5.237-6.753 0.722-0.816 0.564-2.046 1.425-2.773l120.689-102.042c4.338-3.622 9.569-5.41 14.802-5.41 6.484 0 12.967 2.773 17.484 8.094 8.183 9.659 6.975 24.102-2.683 32.285l-72.932 61.664h383.217c12.655 0 22.894 10.24 22.894 22.894s-10.24 22.894-22.894 22.894h-384.157l74.006 63.765c9.569 8.273 10.643 22.715 2.415 32.285-8.183 9.659-22.76 10.509-32.285 2.415l-120.689-104.009c-0.57-0.492-0.626-1.292-1.135-1.828-0.397-0.397-1.039-0.286-1.414-0.722-0.794-0.934-0.419-2.213-1.034-3.231-2.063-3.343-3.219-6.708-3.398-10.604-0.090-1.864-0.096-3.318 0.262-5.145z" />
<glyph unicode="&#xe921;" glyph-name="tolowercase" d="M359.042 637.536c-7.467 16.054-23.029 25.981-40.693 25.981-17.574 1.789-33.629-10.151-41.051-26.786l-272.289-630.436c-5.009-11.627 0.313-25.086 11.939-30.095 11.403-5.053 24.997 0.403 30.095 11.939l88.637 206.91h364.603l89.369-206.91c3.756-8.631 12.163-13.818 21.017-13.818 3.041 0 6.126 0.582 9.078 1.878 11.627 5.009 16.948 18.468 11.939 30.095l-272.645 631.24zM155.3 240.842l161.93 378.002 163.271-378.002h-325.202zM1001.105 362.341c-12.655 0-22.895-10.24-22.895-22.895v-47.43c-35.612 42.61-88.458 70.325-148.195 70.325-107.011 0-194.031-87.022-194.031-194.031 0-106.966 87.022-193.987 194.031-193.987 59.737 0 112.583 27.719 148.195 70.319v-47.424c0-12.655 10.24-22.895 22.895-22.895s22.895 10.24 22.895 22.895v342.228c0 12.655-10.24 22.895-22.895 22.895zM830.013 20.114c-81.744 0-148.241 66.495-148.241 148.195 0 81.744 66.495 148.241 148.241 148.241 81.7 0 148.195-66.495 148.195-148.241 0-81.7-66.495-148.195-148.195-148.195zM555.31 772.496h383.251l-72.907-61.667c-9.66-8.183-10.866-22.628-2.683-32.286 4.517-5.322 11.001-8.094 17.485-8.094 5.232 0 10.464 1.789 14.802 5.41l120.649 102.047c0.86 0.726 0.704 1.956 1.425 2.773 1.928 2.125 4.192 3.952 5.237 6.753 0.459 1.236-0.045 2.51 0.19 3.779 0.358 1.828 0.352 3.281 0.263 5.149-0.179 3.896-1.335 7.261-3.398 10.604-0.615 1.018-0.241 2.298-1.034 3.231-0.369 0.436-1.023 0.319-1.42 0.722-0.508 0.537-0.559 1.335-1.129 1.828l-120.649 104.014c-9.436 8.094-23.924 7.245-32.286-2.415-8.228-9.57-7.155-24.014 2.415-32.286l73.964-63.767h-384.175c-12.655 0-22.895-10.24-22.895-22.895 0-12.659 10.24-22.899 22.895-22.899z" />
<glyph unicode="&#xe922;" glyph-name="link" d="M992.202 818.814l-98.791 98.791c-42.445 42.346-111.51 42.445-153.954 0l-246.832-246.831c-42.445-42.445-42.445-111.559 0-154.004l31.537-31.537-49.378-49.378-31.556 31.569c-42.494 42.395-111.51 42.395-154.004 0l-246.83-246.831c-42.395-42.445-42.395-111.559 0-154.004l98.791-98.791c21.247-21.247 49.1-31.846 77.003-31.846s55.755 10.599 77.002 31.846l246.831 246.831c20.507 20.507 31.797 47.868 31.797 77.002s-11.289 56.495-31.797 76.953l-31.556 31.569 49.389 49.389 31.563-31.563c21.198-21.198 49.051-31.797 76.953-31.797 27.853 0 55.755 10.599 77.002 31.797l246.831 246.831c20.507 20.507 31.797 47.868 31.797 77.002s-11.29 56.495-31.797 77.002zM506.33 332.892c10.993-10.944 17.007-25.586 17.007-41.261s-6.063-30.317-17.007-41.311l-246.831-246.831c-22.775-22.775-59.847-22.775-82.622 0l-98.791 98.791c-22.725 22.775-22.725 59.847 0 82.622l246.831 246.831c11.387 11.338 26.374 17.056 41.311 17.056 14.986 0 29.923-5.669 41.311-17.056l31.55-31.569-144.49-144.471c-9.86-9.86-9.86-25.832 0-35.691 4.929-4.929 11.387-7.394 17.846-7.394s12.916 2.465 17.846 7.394l144.484 144.465 31.556-31.574zM956.511 700.501l-246.831-246.831c-22.727-22.725-59.748-22.824-82.572 0l-31.556 31.556 130.347 130.336c9.86 9.86 9.86 25.832 0 35.691s-25.832 9.86-35.691 0l-130.347-130.336-31.544 31.544c-22.775 22.775-22.775 59.847 0 82.622l246.831 246.831c11.387 11.387 26.324 17.056 41.261 17.056 14.986 0 29.923-5.669 41.311-17.056l98.791-98.791c22.775-22.775 22.775-59.847 0-82.622z" />
<glyph unicode="&#xe923;" glyph-name="unlink" d="M501.143 369.398c-9.758-9.758-9.758-25.567 0-35.325 22.493-22.493 22.493-59.184 0-81.727l-244.302-244.303c-22.542-22.542-59.233-22.542-81.776 0l-97.779 97.779c-22.493 22.542-22.493 59.233 0 81.776l244.303 244.302c22.542 22.444 59.233 22.444 81.776 0 9.758-9.758 25.567-9.758 35.325 0s9.758 25.616 0 35.325c-42.059 41.961-110.367 41.961-152.426 0l-244.303-244.302c-41.961-42.010-41.961-110.416 0-152.426l97.779-97.779c20.297-20.297 47.378-31.471 76.213-31.471s55.916 11.174 76.213 31.471l244.302 244.302c42.010 42.059 41.961 110.416 0 152.377-9.758 9.759-25.567 9.759-35.325 0.001zM982.038 815.015l-97.779 97.779c-42.059 41.961-110.367 41.961-152.426 0l-244.302-244.302c-41.961-42.010-41.961-110.416 0-152.426 9.758-9.758 25.567-9.758 35.325 0 9.758 9.709 9.758 25.567 0 35.325-22.493 22.542-22.493 59.233 0 81.776l244.302 244.302c22.493 22.542 59.184 22.542 81.776 0l97.779-97.779c22.493-22.542 22.493-59.233 0-81.776l-244.303-244.302c-22.542-22.444-59.233-22.444-81.776 0-9.758 9.758-25.567 9.758-35.325 0s-9.758-25.616 0-35.325c21.030-20.981 48.598-31.471 76.213-31.471s55.184 10.49 76.213 31.471l244.302 244.302c41.963 42.010 41.963 110.416 0.001 152.426zM138.422 536.95c1.171 0 2.342 0.098 3.513 0.244l141.693 19.712c13.662 1.903 23.176 14.491 21.273 28.202-1.952 13.71-14.881 23.176-28.202 21.273l-141.693-19.712c-13.662-1.903-23.176-14.491-21.273-28.202 1.758-12.491 12.442-21.517 24.689-21.517zM286.896 658.1c4.733-4.147 10.588-6.196 16.443-6.196 6.928 0 13.857 2.879 18.785 8.538 9.124 10.393 8.050 26.152-2.342 35.229l-78.702 68.895c-10.344 9.026-26.055 8.148-35.227-2.342-9.075-10.393-8.050-26.152 2.342-35.227l78.701-68.896zM415.366 692.498c13.808 0 24.981 11.174 24.981 24.981v100.317c0 13.808-11.174 24.981-24.981 24.981s-24.981-11.174-24.981-24.981v-100.317c0-13.808 11.174-24.981 24.981-24.981z" />
<glyph unicode="&#xe924;" glyph-name="author" d="M1023.999 291.209l-67.598 136.56-136.56-67.557 18.224-36.85 72.033 35.64c-50.608-167.8-201.002-286.662-378.23-295.419v404.608h115.808v41.105h-115.806v142.048c52.53 9.715 92.485 55.66 92.485 110.961 0 62.34-50.698 113.037-113.037 113.037s-113.037-50.698-113.037-113.037c0-55.299 39.955-101.246 92.485-110.961v-142.050h-115.809v-41.105h115.808v-404.608c-177.253 8.775-327.943 128.050-378.42 296.187l73.588-36.407 18.224 36.85-136.559 67.557-67.598-136.559 36.85-18.224 36.604 73.92c57.928-191.298 233.836-326.247 437.864-326.247 204.92 0 381.055 135.647 438.401 327.923l37.432-75.596 36.85 18.224zM439.384 762.305c0 39.66 32.274 71.932 71.932 71.932s71.932-32.274 71.932-71.932-32.273-71.932-71.932-71.932-71.932 32.273-71.932 71.932z" />
<glyph unicode="&#xe925;" glyph-name="image-none" d="M730.919 373.491h-437.838c-14.083 0-25.605-11.394-25.605-25.605s11.394-25.605 25.605-25.605h437.838c14.083 0 25.605 11.394 25.605 25.605s-11.522 25.605-25.605 25.605zM730.919 560.916h-437.838c-14.083 0-25.605-11.394-25.605-25.605 0-14.083 11.394-25.605 25.605-25.605h437.838c14.083 0 25.605 11.394 25.605 25.605s-11.522 25.605-25.605 25.605zM730.919 748.597h-437.838c-14.083 0-25.605-11.394-25.605-25.605 0-14.083 11.394-25.605 25.605-25.605h437.838c14.083 0 25.605 11.394 25.605 25.605 0 14.083-11.522 25.605-25.605 25.605zM730.919 185.809h-437.838c-14.083 0-25.605-11.394-25.605-25.605s11.394-25.605 25.605-25.605h437.838c14.083 0 25.605 11.394 25.605 25.605s-11.522 25.605-25.605 25.605zM43.437-64.091h937.126c14.083 0 25.605 11.394 25.605 25.605v972.972c0 14.083-11.394 25.605-25.605 25.605h-937.126c-14.083 0-25.605-11.394-25.605-25.605v-972.972c0-14.211 11.522-25.605 25.605-25.605zM69.041 909.010h885.917v-922.019h-885.917v922.019z" />
<glyph unicode="&#xe926;" glyph-name="image-left" d="M24.338 893.046h975.324c13.453 0 24.338 10.885 24.338 24.338s-10.885 24.338-24.338 24.338h-975.324c-13.453 0-24.338-10.885-24.338-24.338s10.885-24.338 24.338-24.338zM999.662 383.043h-210.628c-13.453 0-24.338-10.885-24.338-24.338s10.885-24.338 24.338-24.338h210.628c13.453 0 24.338 10.885 24.338 24.338s-10.885 24.338-24.338 24.338zM999.662 561.633h-210.628c-13.453 0-24.338-10.885-24.338-24.338s10.885-24.338 24.338-24.338h210.628c13.453 0 24.338 10.885 24.338 24.338s-10.885 24.338-24.338 24.338zM999.662 740.269h-210.628c-13.453 0-24.338-10.885-24.338-24.338s10.885-24.338 24.338-24.338h210.628c13.453 0 24.338 10.885 24.338 24.338s-10.885 24.338-24.338 24.338zM999.662 204.407h-210.628c-13.453 0-24.338-10.885-24.338-24.338s10.885-24.338 24.338-24.338h210.628c13.453 0 24.338 10.885 24.338 24.338s-10.885 24.338-24.338 24.338zM999.662 2.954h-975.324c-13.453 0-24.338-10.885-24.338-24.338s10.885-24.338 24.338-24.338h975.324c13.453 0 24.338 10.885 24.338 24.338s-10.885 24.338-24.338 24.338zM24.338 155.731h631.36c13.453 0 24.338 10.885 24.338 24.338v535.862c0 13.453-10.885 24.338-24.338 24.338h-631.36c-13.453 0-24.338-10.885-24.338-24.338v-535.862c0-13.453 10.885-24.338 24.338-24.338zM48.676 691.593h582.684v-487.187h-582.684v487.187z" />
<glyph unicode="&#xe927;" glyph-name="image-right" d="M24.34 893.067h975.321c13.453 0 24.339 10.886 24.339 24.339s-10.886 24.339-24.339 24.339h-975.321c-13.453 0-24.339-10.886-24.339-24.339s10.887-24.339 24.339-24.339zM24.34 334.362h210.638c13.453 0 24.339 10.886 24.339 24.339s-10.886 24.339-24.339 24.339h-210.638c-13.453 0-24.339-10.886-24.339-24.339s10.887-24.339 24.339-24.339zM24.34 512.96h210.638c13.453 0 24.339 10.886 24.339 24.339s-10.886 24.339-24.339 24.339h-210.638c-13.453 0-24.339-10.886-24.339-24.339s10.887-24.339 24.339-24.339zM24.34 691.604h210.638c13.453 0 24.339 10.886 24.339 24.339s-10.886 24.339-24.339 24.339h-210.638c-13.453 0-24.339-10.886-24.339-24.339s10.887-24.339 24.339-24.339zM24.34 155.717h210.638c13.453 0 24.339 10.886 24.339 24.339s-10.886 24.339-24.339 24.339h-210.638c-13.453 0-24.339-10.886-24.339-24.339s10.887-24.339 24.339-24.339zM999.659 2.933h-975.321c-13.453 0-24.339-10.886-24.339-24.339s10.887-24.339 24.339-24.339h975.321c13.453 0 24.339 10.886 24.339 24.339s-10.886 24.339-24.339 24.339zM999.659 740.283h-631.34c-13.453 0-24.339-10.886-24.339-24.339v-535.886c0-13.453 10.886-24.339 24.339-24.339h631.34c13.453 0 24.339 10.886 24.339 24.339v535.886c0 13.453-10.886 24.339-24.339 24.339zM975.322 204.396h-582.663v487.207h582.663v-487.207z" />
<glyph unicode="&#xe928;" glyph-name="image-cener" d="M24.34 893.067h975.321c13.453 0 24.339 10.886 24.339 24.339s-10.886 24.339-24.339 24.339h-975.321c-13.453 0-24.339-10.886-24.339-24.339s10.887-24.339 24.339-24.339zM999.659 2.933h-975.321c-13.453 0-24.339-10.886-24.339-24.339s10.887-24.339 24.339-24.339h975.321c13.453 0 24.339 10.886 24.339 24.339s-10.886 24.339-24.339 24.339zM999.659 204.396h-975.321c-13.453 0-24.339-10.886-24.339-24.339s10.886-24.339 24.339-24.339h975.321c13.453 0 24.339 10.886 24.339 24.339s-10.886 24.339-24.339 24.339zM196.329 740.283c-13.453 0-24.339-10.886-24.339-24.339v-339.986c0-13.453 10.886-24.339 24.339-24.339h631.342c13.453 0 24.339 10.886 24.339 24.339v339.986c0 13.453-10.886 24.339-24.339 24.339h-631.342zM803.332 400.297h-582.663v291.307h582.663v-291.307z" />
<glyph unicode="&#xe929;" glyph-name="simple-upload" d="M1002.43 881.281h-980.86c-11.923 0-21.57-9.648-21.57-21.57v-823.422c0-11.923 9.648-21.57 21.57-21.57h980.86c11.923 0 21.57 9.648 21.57 21.57v823.422c0 11.922-9.647 21.57-21.57 21.57zM980.86 57.859h-937.721v139.217l222.15 294.507 166.538-244.141c3.497-5.098 9.016-8.468 15.167-9.227 6.067-0.8 12.344 1.18 16.978 5.267l141.428 125.799 134.393-121.291c3.96-3.581 9.1-5.561 14.45-5.561h226.615v-184.569zM980.86 285.569h-218.316l-142.566 128.664c-8.173 7.372-20.601 7.415-28.774 0.127l-137.553-122.345-169.657 248.733c-3.918 5.73-10.364 9.227-17.315 9.395-7.372 0.169-13.566-3.033-17.736-8.594l-205.803-272.831v569.423h937.72v-552.571zM790.519 543.234c56.58 0 102.628 46.048 102.628 102.628 0 56.622-46.048 102.669-102.628 102.669-56.622 0-102.669-46.048-102.669-102.669-0.001-56.581 46.047-102.628 102.669-102.628zM790.519 705.391c32.819 0 59.487-26.71 59.487-59.529s-26.668-59.487-59.487-59.487c-32.819 0-59.529 26.668-59.529 59.487s26.71 59.529 59.529 59.529z" />
<glyph unicode="&#xe92a;" glyph-name="insert-image" d="M694.843 576.362h-673.32c-11.897 0-21.523-9.627-21.523-21.523v-517.654c0-11.897 9.627-21.523 21.523-21.523h673.32c11.897 0 21.523 9.627 21.523 21.523v517.654c0.001 11.897-9.626 21.523-21.523 21.523zM673.321 533.315v-331.468h-158.567l-87.313 78.863c-8.113 7.356-20.514 7.398-28.712 0.126l-79.913-71.044-112.326 161.93c-3.909 5.633-10.299 9.080-17.152 9.249-7.356 1.051-13.41-2.901-17.571-8.366l-128.72-166.702v327.412h630.273zM43.047 58.708v76.788l144.82 187.546 109.425-157.726c3.531-5.044 9.038-8.366 15.134-9.080 6.179-0.799 12.233 1.219 16.857 5.255l83.613 74.365 79.157-71.507c3.952-3.573 9.080-5.549 14.418-5.549h166.848v-100.092h-630.272zM561.584 347.887c39.978 0 72.515 32.538 72.515 72.515s-32.538 72.473-72.515 72.473c-39.978 0-72.473-32.496-72.473-72.473s32.495-72.515 72.473-72.515zM561.584 449.829c16.269 0 29.468-13.2 29.468-29.426 0-16.269-13.2-29.468-29.468-29.468-16.227 0-29.426 13.2-29.426 29.468-0.001 16.226 13.199 29.426 29.426 29.426zM847.021 726.186h-672.815c-11.897 0-21.523-9.627-21.523-21.523v-93.997c0-11.897 9.627-21.523 21.523-21.523s21.523 9.627 21.523 21.523v72.473h629.768v-476.415h-72.935c-11.897 0-21.523-9.627-21.523-21.523s9.627-21.523 21.523-21.523h94.459c11.897 0 21.523 9.627 21.523 21.523v519.461c0 11.897-9.627 21.524-21.523 21.524zM1002.477 880.338h-672.815c-11.897 0-21.523-9.627-21.523-21.523v-93.997c0-11.897 9.627-21.523 21.523-21.523s21.523 9.627 21.523 21.523v72.473h629.768v-476.415h-72.978c-11.897 0-21.523-9.627-21.523-21.523s9.627-21.523 21.523-21.523h94.502c11.897 0 21.523 9.627 21.523 21.523v519.462c0 11.896-9.626 21.523-21.523 21.523z" />
<glyph unicode="&#xe92b;" glyph-name="emotion" d="M999.671 935.766h-975.342c-13.448 0-24.329-10.882-24.329-24.329v-926.874c0-13.448 10.882-24.329 24.329-24.329h975.342c13.448 0 24.329 10.882 24.329 24.329v926.874c0 13.447-10.881 24.329-24.329 24.329zM975.343 8.891h-926.685v878.215h926.685v-878.215zM348.92 480.501c44.999 0 81.587 36.589 81.587 81.587v100.88c0 44.999-36.589 81.587-81.587 81.587-44.951 0-81.54-36.589-81.54-81.587v-100.88c0-44.999 36.589-81.587 81.54-81.587zM316.039 662.967c0 18.152 14.731 32.929 32.882 32.929s32.929-14.778 32.929-32.929v-100.88c0-18.152-14.778-32.929-32.929-32.929s-32.882 14.778-32.882 32.929v100.88zM675.080 480.501c44.999 0 81.587 36.589 81.587 81.587v100.88c0 44.999-36.589 81.587-81.587 81.587s-81.587-36.589-81.587-81.587v-100.88c0-44.999 36.589-81.587 81.587-81.587zM642.151 662.967c0 18.152 14.778 32.929 32.929 32.929s32.929-14.778 32.929-32.929v-100.88c0-18.152-14.778-32.929-32.929-32.929s-32.929 14.778-32.929 32.929v100.88zM512 151.443c154.86 0 295.368 92.849 349.681 231.029 4.895 12.497-1.283 26.61-13.781 31.551-12.403 4.8-26.61-1.283-31.551-13.781-46.995-119.695-169.305-200.143-304.349-200.143-134.997 0-257.354 80.495-304.349 200.238-4.942 12.544-19.197 18.674-31.551 13.781-12.497-4.942-18.674-19.055-13.781-31.551 54.313-138.228 194.821-231.125 349.681-231.125z" />
<glyph unicode="&#xe92c;" glyph-name="scrawl" d="M323.847 960h-298.365c-14.085 0-25.482-11.397-25.482-25.482v-973.036c0-14.085 11.397-25.482 25.482-25.482h973.036c14.085 0 25.482 11.397 25.482 25.482v298.366c-0.001 386.059-314.094 700.151-700.153 700.151zM973.035-13.035h-922.072v922.072h272.884c357.939 0 649.188-291.248 649.188-649.188v-272.884zM282.141 331.118c-73.857 0-133.929-60.072-133.929-133.929s60.072-133.929 133.929-133.929 133.929 60.072 133.929 133.929-60.072 133.929-133.929 133.929zM282.141 114.225c-45.738 0-82.966 37.227-82.966 82.966s37.227 82.966 82.966 82.966 82.966-37.227 82.966-82.966-37.227-82.966-82.966-82.966zM276.318 634.411c53.403 0 96.851 43.448 96.851 96.851s-43.448 96.851-96.851 96.851-96.851-43.448-96.851-96.851 43.448-96.851 96.851-96.851zM276.318 777.149c25.283 0 45.887-20.604 45.887-45.887s-20.604-45.887-45.887-45.887c-25.283 0-45.887 20.604-45.887 45.887s20.604 45.887 45.887 45.887zM544.424 756.743c-53.403 0-96.851-43.448-96.851-96.851s43.448-96.851 96.851-96.851 96.851 43.448 96.851 96.851-43.45 96.851-96.851 96.851zM544.424 614.005c-25.283 0-45.887 20.604-45.887 45.887s20.604 45.887 45.887 45.887 45.887-20.604 45.887-45.887c0-25.281-20.604-45.887-45.887-45.887zM638.189 448.025c0-53.403 43.448-96.851 96.851-96.851s96.851 43.448 96.851 96.851-43.448 96.851-96.851 96.851-96.851-43.448-96.851-96.851zM780.927 448.025c0-25.283-20.604-45.887-45.887-45.887s-45.887 20.604-45.887 45.887c0 25.283 20.604 45.887 45.887 45.887s45.887-20.603 45.887-45.887zM709.558 197.189c0-53.403 43.448-96.851 96.851-96.851s96.851 43.448 96.851 96.851-43.448 96.851-96.851 96.851c-53.403 0-96.851-43.448-96.851-96.851zM852.296 197.189c0-25.283-20.604-45.887-45.887-45.887s-45.887 20.604-45.887 45.887 20.604 45.887 45.887 45.887c25.281 0.001 45.887-20.603 45.887-45.887z" />
<glyph unicode="&#xe92d;" glyph-name="insert-video" d="M999.671 960c-13.4 0-24.329-10.881-24.329-24.329v-72.987h-133.714v72.987c0 13.448-10.929 24.329-24.329 24.329s-24.329-10.881-24.329-24.329v-72.987h-557.664v72.987c0 13.448-10.929 24.329-24.329 24.329s-24.329-10.881-24.329-24.329v-72.987h-137.99v72.987c0 13.448-10.929 24.329-24.329 24.329s-24.329-10.881-24.329-24.329v-975.342c0-13.448 10.929-24.329 24.329-24.329s24.329 10.881 24.329 24.329v72.987h137.99v-72.987c0-13.448 10.929-24.329 24.329-24.329s24.329 10.881 24.329 24.329v72.987h557.664v-72.987c0-13.448 10.929-24.329 24.329-24.329s24.329 10.881 24.329 24.329v72.987h133.714v-72.987c0-13.448 10.929-24.329 24.329-24.329s24.329 10.881 24.329 24.329v975.342c0 13.448-10.929 24.329-24.329 24.329zM841.628 484.873h133.714v-98.029h-133.714v98.029zM975.342 533.531h-133.714v97.981h133.714v-97.981zM841.628 338.188h133.714v-98.029h-133.714v98.029zM975.342 814.026v-133.856h-133.714v133.856h133.714zM792.97 814.026v-355.763h-557.664v355.763h557.664zM186.648 386.845h-137.99v98.029h137.99v-98.029zM186.648 533.531h-137.99v97.981h137.99v-97.981zM48.658 338.188h137.99v-98.029h-137.99v98.029zM186.648 814.026v-133.856h-137.99v133.856h137.99zM48.658 81.974v109.527h137.99v-109.527h-137.99zM235.306 81.974v327.633h557.664v-327.633h-557.664zM841.628 81.974v109.527h133.714v-109.527h-133.714z" />
<glyph unicode="&#xe92e;" glyph-name="insert-music" d="M1022.092 167.292c0.295 1.461 1.643 2.41 1.643 3.96v723.839c0 12.573-10.219 22.747-22.747 22.747h-683.231c-12.529 0-22.747-10.174-22.747-22.747v-630.26c-31.14 33.772-75.335 55.303-124.757 55.303-93.835 0-170.252-76.373-170.252-170.252s76.418-170.252 170.252-170.252 170.252 76.373 170.252 170.252c0 5.881-1.155 11.451-1.738 17.183 0.328 1.539 1.738 2.549 1.738 4.187v701.090h637.735v-608.656c-31.122 33.589-75.219 54.98-124.49 54.98-93.923 0-170.341-76.373-170.341-170.252s76.417-170.251 170.339-170.251c93.833 0 170.252 76.373 170.252 170.252 0 6.464-1.205 12.595-1.91 18.877zM170.252 25.125c-68.776 0-124.757 55.981-124.757 124.757s55.981 124.757 124.757 124.757 124.757-55.981 124.757-124.757c-0.001-68.776-55.981-124.757-124.757-124.757zM853.75 23.659c-68.865 0-124.845 55.981-124.845 124.757s55.981 124.757 124.845 124.757c68.776 0 124.757-55.981 124.757-124.757s-55.98-124.757-124.757-124.757z" />
<glyph unicode="&#xe92f;" glyph-name="attachment" d="M1023.999 724.472c0 47.992-18.618 93.001-52.33 126.712-69.864 69.864-183.651 69.773-253.334 0l-102.112-102.123c-0.006-0.006-0.012 0-0.017-0.006l-297.801-297.846c-20.335-20.335-31.633-47.494-31.633-76.462 0-28.921 11.298-56.080 31.633-76.462l20.968-21.013c21.058-21.103 48.805-31.633 76.462-31.633 27.746 0 55.493 10.529 76.552 31.633l297.801 297.846c9.038 9.038 9.038 23.679 0 32.718s-23.679 9.038-32.718 0l-297.801-297.846c-24.132-24.087-63.266-24.177-87.578 0l-20.968 21.013c-11.658 11.613-18.076 27.159-18.076 43.744s6.417 32.131 18.076 43.744l399.929 399.974c51.878 51.833 136.022 51.742 187.899 0 25.035-24.99 38.773-58.34 38.773-93.995 0-35.609-13.737-68.96-38.773-93.949l-399.928-399.929c-0.034-0.034-0.017-0.085-0.051-0.118l-155.312-155.289c-69.411-69.411-191.605-69.411-261.016 0-71.852 71.942-71.852 188.984 0 260.926l289.667 289.667c9.038 9.038 9.038 23.679 0 32.718s-23.679 9.038-32.718 0l-289.666-289.667c-89.927-89.973-89.927-236.387 0-326.361 45.009-45.009 104.117-67.513 163.225-67.513s118.217 22.504 163.226 67.513l289.667 289.621c0.045 0.045 0.022 0.107 0.063 0.152l265.563 265.564c33.711 33.711 52.33 78.72 52.33 126.667z" />
<glyph unicode="&#xe930;" glyph-name="map" d="M997.405 960.091h-970.811c-13.922 0-25.278-11.306-25.278-25.278v-970.861c0-13.971 11.356-25.278 25.278-25.278h764.766c2.913-1.142 5.678-2.765 8.862-2.765 2.765 0 5.628 0.494 8.492 1.481 0.648 0.234 0.796 1.006 1.413 1.284h187.279c13.922 0 25.278 11.306 25.278 25.278v970.861c-0.001 13.972-11.357 25.278-25.279 25.278zM377.954 909.537c19.347-24.592 73.84-103.733 25.235-165.439-28.239-35.794-78.794-31.696-132.509-27.795-58.158 4.691-124.215 9.726-156.997-47.592-22.217-38.755 5.529-85.706 37.619-140.013 37.916-64.329 85.213-144.407 61.712-225.868-17.076-59.164-72.599-115.063-161.143-166.981v773.688h326.083zM51.871 77.381c117.334 63.193 186.89 132.355 209.724 211.477 29.523 102.394-26.167 196.69-66.847 265.512-19.946 33.868-44.828 75.98-37.225 89.211 16.095 28.042 51.937 26.709 109.306 22.316 58.257-4.492 131.029-10.17 176.053 46.901 51.406 65.254 28.74 143.186-3.247 196.74h532.492v-497.619c-88.508-32.831-151.752-86.447-186.914-160.336-47.34-99.438-31.961-207.434-18.983-262.353h-714.359v88.15zM818.377-10.769c-11.133 42.23-31.659 148.122 12.651 240.926 26.869 56.331 75.024 98.314 141.1 126.666v-367.59h-153.751zM730.017 650.048c-40.582 40.533-111.28 40.433-151.467 0-20.242-20.192-31.399-47.1-31.399-75.733 0-19.81 7.054-37.842 17.045-54.344l-159.032-158.984c-9.874-9.874-9.874-25.87 0-35.744 4.937-4.937 11.356-7.405 17.872-7.405 6.418 0 12.935 2.468 17.872 7.405l159.034 158.99c16.502-9.973 34.541-17.001 54.344-17.001 28.536 0 55.491 11.109 75.733 31.35 41.668 41.766 41.668 109.699-0.001 151.466zM694.273 534.324c-21.327-21.327-58.651-21.327-79.98 0-10.664 10.713-16.588 24.882-16.588 39.989s5.925 29.276 16.588 39.989c10.664 10.664 24.882 16.539 39.989 16.539s29.326-5.875 39.989-16.539c22.021-22.017 22.021-57.91 0.001-79.978z" />
<glyph unicode="&#xe931;" glyph-name="gmap" d="M998.657 960.024h-973.314c-13.958 0-25.343-11.335-25.343-25.343v-973.362c0-14.008 11.385-25.343 25.343-25.343h973.313c13.958 0 25.343 11.335 25.343 25.343v973.362c0.001 14.008-11.384 25.343-25.341 25.343zM50.685 312.334c62.824 96.124 140.393 137.776 141.166 138.215 12.374 6.435 17.225 21.729 10.791 34.153s-21.977 17.176-34.055 10.84c-3.044-1.522-59.378-31.734-117.903-99.372v513.17h538.363c-22.948-53.203-69.909-83.564-70.416-83.898-11.879-7.424-15.543-23.065-8.118-34.896 4.85-7.721 13.067-11.979 21.581-11.979 4.455 0 9.108 1.238 13.265 3.762 3.105 2.011 72.025 46.224 97.25 127.010h330.704v-686.47c-129.125-39.981-239.424-191.852-269.029-236.207h-653.598v325.673zM766.497-13.339c39.796 54.162 119.4 148.294 206.818 182.67v-182.67h-206.818zM784.136 148.715c13.958 0 25.343 11.335 25.343 25.343v279.809c0 14.008-11.385 25.343-25.343 25.343h-364.794c-13.958 0-25.343-11.335-25.343-25.343s11.385-25.343 25.343-25.343h339.452v-229.123h-477.153v504.277h502.496c13.958 0 25.343 11.335 25.343 25.343s-11.385 25.343-25.343 25.343h-527.838c-13.958 0-25.343-11.335-25.343-25.343v-554.963c0-14.008 11.385-25.343 25.343-25.343h527.838z" />
<glyph unicode="&#xe932;" glyph-name="insert-iframe" d="M885.5 181.687c-12.375 0-22.469-10.050-22.469-22.469v-120.243h-818.093v818.049h818.094v-165.884c0-12.419 10.094-22.469 22.469-22.469s22.469 10.050 22.469 22.469v188.353c0 12.419-10.094 22.469-22.469 22.469h-863.032c-12.375 0-22.469-10.050-22.469-22.469v-862.987c0-12.419 10.094-22.469 22.469-22.469h863.032c12.375 0 22.469 10.050 22.469 22.469v142.712c-0.001 12.419-10.094 22.469-22.47 22.469zM818.796 635.76c-113.134 0-205.204-92.026-205.204-205.16s92.069-205.204 205.204-205.204 205.204 92.069 205.204 205.204-92.069 205.16-205.204 205.16zM818.796 270.334c-88.383 0-160.266 71.883-160.266 160.266 0 88.34 71.883 160.223 160.266 160.223s160.266-71.883 160.266-160.223c0-88.383-71.883-160.266-160.266-160.266z" />
<glyph unicode="&#xe933;" glyph-name="page-break" d="M999.266 947.852c-13.622 0-24.733-11.062-24.733-24.733v-341.527h-552.433v341.527c0 13.671-11.11 24.733-24.733 24.733s-24.733-11.062-24.733-24.733v-366.26c0-13.671 11.11-24.733 24.733-24.733h601.898c13.622 0 24.733 11.062 24.733 24.733v366.26c0 13.671-11.11 24.733-24.733 24.733zM999.266 363.827h-601.898c-13.622 0-24.733-11.062-24.733-24.733v-366.211c0-13.671 11.11-24.733 24.733-24.733s24.733 11.062 24.733 24.733v341.477h552.433v-341.478c0-13.671 11.11-24.733 24.733-24.733s24.733 11.062 24.733 24.733v366.212c0 13.67-11.11 24.733-24.733 24.733zM552.142 774.48h285.491c13.622 0 24.733 11.062 24.733 24.733s-11.11 24.733-24.733 24.733h-285.491c-13.622 0-24.733-11.062-24.733-24.733-0.001-13.67 11.11-24.733 24.733-24.733zM837.633 169.925h-285.491c-13.622 0-24.733-11.062-24.733-24.733s11.11-24.733 24.733-24.733h285.491c13.622 0 24.733 11.062 24.733 24.733s-11.11 24.733-24.733 24.733zM332.058 450.332c-0.181 4.299-1.45 8.013-3.756 11.69-0.646 1.045-0.254 2.379-1.075 3.345-0.386 0.452-1.057 0.339-1.467 0.755-0.556 0.586-0.616 1.461-1.238 1.998l-130.331 112.36c-10.241 8.84-25.796 7.729-34.877-2.608-8.889-10.338-7.729-25.941 2.608-34.877l79.899-68.884h-217.088c-13.622 0-24.733-11.062-24.733-24.733s11.11-24.733 24.733-24.733h216.166l-78.782-66.663c-10.434-8.84-11.786-24.443-2.898-34.877 4.831-5.748 11.786-8.744 18.839-8.744 5.7 0 11.304 1.932 15.942 5.845l130.331 110.283c0.857 0.731 0.695 1.957 1.431 2.772 2.168 2.337 4.667 4.402 5.815 7.518 0.501 1.358-0.042 2.759 0.211 4.154 0.374 1.921 0.356 3.443 0.271 5.398z" />
<glyph unicode="&#xe934;" glyph-name="template" d="M998.658 959.975h-973.318c-13.956 0-25.34-11.334-25.34-25.34v-973.27c0-14.006 11.384-25.34 25.34-25.34h973.32c13.956 0 25.34 11.334 25.34 25.34v973.27c-0.001 14.006-11.384 25.34-25.341 25.34zM973.318-13.295h-922.638v922.589h922.639v-922.589zM202.226 127.561h267.359c13.956 0 25.34 11.334 25.34 25.34v595.939c0 14.006-11.384 25.34-25.34 25.34h-267.359c-13.956 0-25.34-11.334-25.34-25.34v-595.939c0-14.006 11.382-25.34 25.34-25.34zM227.566 723.5h216.678v-545.259h-216.678v545.259zM589.851 127.561h242.612c13.956 0 25.34 11.334 25.34 25.34v234.742c0 14.006-11.384 25.34-25.34 25.34h-242.612c-13.956 0-25.34-11.334-25.34-25.34v-234.743c0-14.005 11.382-25.339 25.34-25.339zM615.191 362.304h191.932v-184.063h-191.932v184.063zM589.851 488.707h242.612c13.956 0 25.34 11.334 25.34 25.34v234.792c0 14.006-11.384 25.34-25.34 25.34h-242.612c-13.956 0-25.34-11.334-25.34-25.34v-234.792c0-14.006 11.382-25.34 25.34-25.34zM615.191 723.5h191.932v-184.113h-191.932v184.113z" />
<glyph unicode="&#xe935;" glyph-name="background" d="M855.512 705.577h-835.328c-11.117 0-20.184-9.027-20.184-20.184s9.067-20.184 20.184-20.184h815.144v-585.4h-794.96v414.313c0 11.156-9.067 20.184-20.184 20.184s-20.184-9.027-20.184-20.184v-434.497c0-11.156 9.067-20.184 20.184-20.184h835.328c11.117 0 20.184 9.027 20.184 20.184v625.768c0 11.156-9.067 20.184-20.184 20.184zM1003.814 856.559h-805.525c-11.117 0-20.184-9.027-20.184-20.184v-86.884c0-11.156 9.067-20.184 20.184-20.184s20.184 9.027 20.184 20.184v66.7h765.159v-639.288h-56.845c-11.117 0-20.184-9.027-20.184-20.184s9.067-20.184 20.184-20.184h77.029c11.117 0 20.184 9.027 20.184 20.184v679.656c-0.001 11.157-9.068 20.184-20.185 20.184zM667.633 388.672c59.446 0 107.855 48.409 107.855 107.895s-48.409 107.855-107.855 107.855c-59.526 0-107.934-48.369-107.934-107.855s48.408-107.895 107.934-107.895zM667.633 564.056c37.214 0 67.489-30.275 67.489-67.489 0-37.252-30.275-67.528-67.489-67.528-37.292 0-67.567 30.275-67.567 67.528 0 37.214 30.275 67.489 67.567 67.489zM344.855 427.226c-3.784 4.81-9.54 7.608-15.611 7.687-8.2 0.079-11.984-2.641-15.768-7.333l-212.795-258.008c-7.096-8.594-5.913-21.327 2.68-28.422 3.784-3.114 8.357-4.613 12.851-4.613 5.834 0 11.59 2.484 15.531 7.333l196.947 238.694 106.358-134.899c7.017-8.751 19.631-10.25 28.384-3.351s10.25 19.592 3.311 28.344l-121.888 154.569zM456.257 140.361c9.146-6.583 21.681-4.494 28.225 4.573l99.025 137.5 208.615-177c3.863-3.233 8.436-4.81 13.088-4.81 5.677 0 11.432 2.404 15.374 7.135 7.254 8.476 6.15 21.248-2.287 28.422l-225.329 191.151c-4.336 3.627-9.934 5.48-15.531 4.651-5.598-0.67-10.644-3.666-13.955-8.239l-111.798-155.24c-6.464-9.027-4.414-21.641 4.573-28.146z" />
<glyph unicode="&#xe936;" glyph-name="horizontal" d="M1002.247 469.642h-980.605c-11.937 0-21.642-9.706-21.642-21.642s9.706-21.642 21.642-21.642h980.716c11.937 0 21.642 9.706 21.642 21.642s-9.706 21.642-21.754 21.642z" />
<glyph unicode="&#xe937;" glyph-name="date" d="M1001.813 773.027h-144.764c-12.202 0-22.075-9.873-22.075-22.075s9.873-22.075 22.075-22.075h122.8v-141.769h-935.699v141.769h137.665c12.202 0 22.075 9.873 22.075 22.075s-9.873 22.075-22.075 22.075h-159.74c-12.202 0-22.075-9.873-22.075-22.075v-724.598c0-12.202 9.873-22.075 22.075-22.075h979.85c12.202 0 22.075 9.873 22.075 22.075v724.598c0 12.202-9.984 22.075-22.186 22.075zM44.15 48.428v494.418h935.588v-494.418h-935.588zM331.016 728.876h372.283c12.202 0 22.075 9.873 22.075 22.075s-9.873 22.075-22.075 22.075h-372.283c-12.202 0-22.075-9.873-22.075-22.075s9.873-22.075 22.075-22.075zM254.363 687.277c12.202 0 22.075 9.873 22.075 22.075v160.295c0 12.202-9.873 22.075-22.075 22.075s-22.075-9.873-22.075-22.075v-160.184c0-12.313 9.873-22.186 22.075-22.186zM777.401 687.277c12.202 0 22.075 9.873 22.075 22.075v160.295c0 12.202-9.873 22.075-22.075 22.075s-22.075-9.873-22.075-22.075v-160.184c0-12.313 9.873-22.186 22.075-22.186zM300.732 459.204c-12.202 0-22.075-9.873-22.075-22.075v-279.656c0-12.202 9.873-22.075 22.075-22.075s22.075 9.873 22.075 22.075v279.656c0.111 12.202-9.873 22.075-22.075 22.075zM723.156 415.054c12.202 0 22.075 9.873 22.075 22.075s-9.873 22.075-22.075 22.075h-249.483c-12.202 0-22.075-9.873-22.075-22.075v-125.352c0-12.202 9.873-22.075 22.075-22.075h227.297v-110.154h-227.297c-12.202 0-22.075-9.873-22.075-22.075s9.873-22.075 22.075-22.075h249.372c12.202 0 22.075 9.873 22.075 22.075v154.304c0 12.202-9.873 22.075-22.075 22.075h-227.297v81.201h227.408z" />
<glyph unicode="&#xe938;" glyph-name="time" d="M537.476 823.106v86.031h140.825c14.083 0 25.477 11.394 25.477 25.477s-11.394 25.477-25.477 25.477h-332.603c-14.083 0-25.477-11.394-25.477-25.477s11.394-25.477 25.477-25.477h140.825v-86.031c-103.314-5.889-197.155-47.24-269.744-111.892l-72.845 72.845c-9.986 9.986-26.117 9.986-35.974 0s-9.986-26.117 0-35.974l72.845-72.845c-70.028-78.478-112.66-181.92-112.66-295.221-0.128-244.908 199.075-444.111 443.855-444.111s443.855 199.203 443.855 443.983c0.128 236.202-185.377 429.9-418.378 443.215zM511.999-13.139c-216.743 0-393.030 176.287-393.030 393.030s176.287 393.030 393.030 393.030c216.743 0 393.030-176.287 393.030-393.030s-176.287-393.030-393.030-393.030zM754.346 405.367h-216.871v128.151c0 14.083-11.394 25.477-25.477 25.477s-25.477-11.394-25.477-25.477v-153.627c0-14.083 11.394-25.477 25.477-25.477h242.347c14.083 0 25.477 11.394 25.477 25.477s-11.394 25.477-25.477 25.477z" />
<glyph unicode="&#xe939;" glyph-name="spechars" d="M937.935-64.092h-194.595c-29.573 0-55.69 17.667-66.444 45.192-10.626 27.269-3.457 57.738 18.179 77.71 15.619 14.339 33.67 28.037 53.001 42.632 89.488 67.468 200.74 151.451 191.266 429.644-10.626 317.368-256.43 372.93-401.992 377.795h-51.593c-144.666-4.865-390.469-60.299-401.223-377.795-9.474-278.322 101.778-362.304 191.010-429.772 19.203-14.467 37.255-28.165 52.873-42.504 21.636-19.972 28.805-50.441 18.179-77.71-10.626-27.525-36.743-45.192-66.316-45.192h-194.595c-14.211 0-25.605 11.522-25.605 25.605s11.522 25.605 25.605 25.605h194.595c12.802 0 17.411 9.602 18.563 12.546 1.408 3.713 3.841 13.058-5.121 21.38-14.467 13.314-31.238 25.861-49.033 39.431-93.585 70.541-221.863 167.326-211.494 472.276 12.674 372.546 320.057 422.859 451.664 427.34h53.385c132.504-4.353 439.886-54.794 452.56-427.34 10.37-304.822-118.037-401.607-211.622-472.276-17.923-13.442-34.694-26.117-49.289-39.431-8.962-8.193-6.529-17.667-5.121-21.38 1.152-2.945 5.889-12.546 18.691-12.546h194.595c14.211 0 25.605-11.522 25.605-25.605s-11.522-25.605-25.733-25.605z" />
<glyph unicode="&#xe93a;" glyph-name="snap-screen" d="M767.568 145.153h-628.925v502.059c0 11.995-9.726 21.612-21.612 21.612s-21.612-9.726-21.612-21.612v-523.672c0-11.995 9.726-21.612 21.612-21.612h650.429c11.995 0 21.612 9.726 21.612 21.612s-9.618 21.612-21.504 21.612zM862.988 736.365h-841.376c-11.995 0-21.612-9.726-21.612-21.612s9.726-21.612 21.612-21.612h819.764v-655.724c0-11.995 9.726-21.612 21.612-21.612 11.995 0 21.612 9.726 21.612 21.612v677.337c0 11.995-9.726 21.612-21.612 21.612zM117.031 768.891c11.995 0 21.612 9.726 21.612 21.612v68.079c0 11.995-9.726 21.612-21.612 21.612s-21.612-9.726-21.612-21.612v-68.079c0-11.887 9.726-21.612 21.612-21.612zM1002.388 145.153h-71.862c-11.995 0-21.612-9.726-21.612-21.612s9.726-21.612 21.612-21.612h71.862c11.995 0 21.612 9.726 21.612 21.612s-9.618 21.612-21.612 21.612z" />
<glyph unicode="&#xe93b;" glyph-name="select-all-old" d="M104.144 960l-104.144-104.144v-76.465l180.609 180.609zM324.566 960l-324.566-324.566v-76.465l401.031 401.031zM255.052 616.35l-7.71 46.132-247.342-247.469v-76.465l261.245 261.245c-1.896 5.687-5.182 10.49-6.193 16.557zM487.481 826.028l133.972 133.972h-76.465l-140.797-140.797c30.46 3.792 58.139 6.067 83.29 6.825zM210.184 338.548c0 27.047 5.056 53.083 12.26 78.487l-222.444-222.444v-76.465l211.195 211.195c-0.126 3.16-1.011 6.067-1.011 9.226zM672.766 790.892l169.108 169.108h-76.465l-148.001-148.001c19.717-5.435 38.043-12.512 55.358-21.107zM985.831 960l-231.797-231.67c10.617-12.639 20.854-27.932 30.207-46.258l239.759 239.633v38.296h-38.169zM239.759 213.928l-239.759-239.633v-38.296h38.169l231.544 231.544c-11.375 14.535-21.739 29.954-29.954 46.385zM347.316 101.063l-165.063-165.063h76.465l143.325 143.325c-19.59 5.308-37.917 12.386-54.726 21.739zM813.816 548.353l-0.126-57.38 210.311 210.437v76.465l-211.701-211.701c0.253-6.193 1.643-11.249 1.517-17.821zM601.862 86.15c-18.706-5.056-39.812-9.353-61.678-12.639l-137.637-137.511h76.465l146.611 146.611c-8.089 0.632-16.178 1.264-23.761 3.539zM813.058 270.045l210.942 210.942v76.465l-210.69-210.69zM699.434-64l324.566 324.566v76.465l-401.031-401.031zM919.856-64l104.144 104.144v76.465l-180.609-180.609zM350.349 702.42c53.842 9.353 110.843 16.557 158.491 16.557 110.843 0 198.809-46.511 196.787-168.729 0-129.422-1.011-230.28-1.011-360.839h-70.398v21.739c-44.489-18.579-102.501-34.251-152.172-34.251-36.274 0-70.398 7.204-97.319 27.932-46.637 35.262-66.228 84.933-66.228 133.593 0 76.718 51.819 153.309 121.207 169.866 51.819 10.364 103.512 13.524 144.968 13.524 16.557 0 34.251 0 50.808-1.011v29.449c1.011 67.365-55.864 98.33-126.389 98.33-47.648 0-98.33-7.204-147.116-14.535l-11.628 68.376zM634.218 288.877v161.525c-15.546 0-31.092 1.011-49.671 1.011-39.307 0-83.922-2.022-129.422-12.386-38.296-8.342-66.228-53.842-66.228-100.479 0-27.932 12.386-58.012 37.285-78.74 12.386-9.353 33.114-12.386 55.99-12.386 52.578 0 114.761 20.728 152.045 41.455z" />
<glyph unicode="&#xe93c;" glyph-name="95" d="M128.009 571.249h767.982c14.348 0 26.012-11.664 26.012-26.012s-11.664-26.012-26.012-26.012h-767.982c-14.348 0-26.012 11.664-26.012 26.012s11.664 26.012 26.012 26.012zM895.991 713.594h-481.124c-14.348 0-26.012 11.664-26.012 26.012s11.664 26.012 26.012 26.012h481.124c14.348 0 26.012-11.664 26.012-26.012s-11.664-26.012-26.012-26.012zM895.991 324.751h-481.124c-14.348 0-26.012 11.664-26.012 26.012s11.664 26.012 26.012 26.012h481.124c14.348 0 26.012-11.664 26.012-26.012s-11.664-26.012-26.012-26.012zM895.991 908.067h-767.982c-14.348 0-26.012 11.664-26.012 26.012s11.664 26.012 26.012 26.012h767.982c14.348 0 26.012-11.664 26.012-26.012 0-14.451-11.664-26.012-26.012-26.012zM895.991-64.091h-481.124c-14.348 0-26.012 11.664-26.012 26.012s11.664 26.012 26.012 26.012h481.124c14.348 0 26.012-11.664 26.012-26.012s-11.664-26.012-26.012-26.012zM895.991 130.382h-767.982c-14.348 0-26.012 11.664-26.012 26.012s11.664 26.012 26.012 26.012h767.982c14.348 0 26.012-11.664 26.012-26.012 0-14.451-11.664-26.012-26.012-26.012z" />
<glyph unicode="&#xe93d;" glyph-name="delete-table" d="M852.923-60.821h-832.205c-11.487 0-20.718 9.231-20.718 20.718v832.308c0 11.487 9.231 20.718 20.718 20.718h533.846c11.487 0 20.718-9.231 20.718-20.718s-9.231-20.718-20.718-20.718h-513.128v-790.872h790.769v505.538c0 11.487 9.231 20.718 20.718 20.718s20.718-9.231 20.718-20.718v-526.256c0-11.385-9.231-20.718-20.718-20.718zM612 563.385h-591.282c-11.487 0-20.718 9.231-20.718 20.718s9.231 20.718 20.718 20.718h591.282c11.487 0 20.718-9.231 20.718-20.718s-9.333-20.718-20.718-20.718zM852.923 355.282h-832.205c-11.487 0-20.718 9.231-20.718 20.718s9.231 20.718 20.718 20.718h832.205c11.487 0 20.718-9.231 20.718-20.718s-9.231-20.718-20.718-20.718zM852.923 147.282h-832.205c-11.487 0-20.718 9.231-20.718 20.718s9.231 20.718 20.718 20.718h832.205c11.487 0 20.718-9.231 20.718-20.718s-9.231-20.718-20.718-20.718zM575.487-46.256c-11.487 0-20.718 9.231-20.718 20.718v597.538c0 11.487 9.231 20.718 20.718 20.718s20.718-9.231 20.718-20.718v-597.538c0-11.487-9.231-20.718-20.718-20.718zM20.718-46.256c-11.487 0-20.718 9.231-20.718 20.718v597.538c0 11.487 9.231 20.718 20.718 20.718s20.718-9.231 20.718-20.718v-597.538c0-11.487-9.333-20.718-20.718-20.718zM298.051-46.256c-11.487 0-20.718 9.231-20.718 20.718v597.538c0 11.487 9.231 20.718 20.718 20.718s20.718-9.231 20.718-20.718v-597.538c0-11.487-9.231-20.718-20.718-20.718zM817.949 544.718c113.641 0 206.051 92.41 206.051 206.051s-92.41 206.051-206.051 206.051-205.949-92.41-205.949-206.051 92.41-206.051 205.949-206.051zM817.949 915.385c90.769 0 164.615-73.846 164.615-164.615s-73.846-164.615-164.615-164.615-164.615 73.846-164.615 164.615 73.949 164.615 164.615 164.615zM741.744 674.769c4-4 9.333-6.051 14.667-6.051s10.564 2.051 14.667 6.051l46.974 46.974 46.974-46.974c4-4 9.333-6.051 14.667-6.051s10.564 2.051 14.667 6.051c8.103 8.103 8.103 21.231 0 29.333l-46.974 46.974 46.974 46.974c8.103 8.103 8.103 21.231 0 29.333s-21.231 8.103-29.333 0l-47.077-47.077-46.974 46.974c-8.103 8.103-21.231 8.103-29.333 0s-8.103-21.231 0-29.333l46.974-46.974-46.872-46.872c-8.103-8.103-8.103-21.231 0-29.333z" />
<glyph unicode="&#xe93e;" glyph-name="insert-paragraph-before-table" d="M632.859 854.592h-612.529c-11.283 0-20.33-9.047-20.33-20.33v-183.373c0-11.283 9.047-20.33 20.33-20.33h612.529c11.283 0 20.33 9.047 20.33 20.33v183.373c0 11.283-9.047 20.33-20.33 20.33zM40.659 813.933h265.606v-142.714h-265.606v142.714zM346.924 813.933h265.606v-142.714h-265.606v142.714zM1003.67 648.552h-310.839c-11.283 0-20.33-9.047-20.33-20.33v-183.373c0-11.283 9.047-20.33 20.33-20.33h310.839c11.283 0 20.33 9.047 20.33 20.33v183.373c0 11.283-9.148 20.33-20.33 20.33zM713.161 465.179v142.714h270.18v-142.714h-270.18zM632.859 448.916h-612.529c-11.283 0-20.33-9.047-20.33-20.33v-366.847c0-11.283 9.047-20.33 20.33-20.33h612.529c11.283 0 20.33 9.047 20.33 20.33v366.847c0 11.283-9.047 20.33-20.33 20.33zM612.53 265.442h-265.606v142.815h265.606v-142.815zM306.265 408.257v-142.815h-265.606v142.815h265.606zM40.659 224.782h265.606v-142.714h-265.606v142.714zM346.924 224.782h265.606v-142.714h-265.606v142.714zM632.859 563.066h-178.494l22.769 19.618c8.538 7.319 9.453 20.126 2.135 28.665-7.42 8.538-20.228 9.352-28.665 2.135l-64.14-55.398c-0.203-0.203-0.407-0.407-0.61-0.508-0.102-0.102-0.305-0.203-0.407-0.407-0.203-0.203-0.407-0.508-0.712-0.712-0.203-0.203-0.407-0.407-0.61-0.61-3.863-4.473-5.286-10.165-4.676-15.654 0 0 0-0.102 0-0.102 0.305-2.033 0.813-4.066 1.728-5.896 0 0 0 0 0 0 0.203-0.508 0.407-0.915 0.712-1.321 0 0 0 0 0-0.102 0.712-1.321 1.626-2.541 2.643-3.659 0 0 0-0.102 0.102-0.102 0.305-0.305 0.61-0.61 0.915-0.915 0.102-0.102 0.203-0.203 0.407-0.305 0.203-0.203 0.407-0.407 0.61-0.61l64.14-54.28c3.863-3.253 8.538-4.777 13.113-4.777 5.794 0 11.486 2.44 15.552 7.217 7.217 8.538 6.201 21.448-2.338 28.665l-21.753 18.398h177.68c11.283 0 20.33 9.047 20.33 20.33s-9.148 20.33-20.431 20.33z" />
<glyph unicode="&#xe93f;" glyph-name="insert-row" d="M378.604 448.59h-355.015c-12.974 0-23.589-10.497-23.589-23.589v-425.192c0-12.974 10.497-23.589 23.589-23.589h355.015c12.974 0 23.589 10.497 23.589 23.589v425.192c0 13.092-10.615 23.589-23.589 23.589zM355.015 401.412v-165.477h-307.955v165.477h307.955zM355.015 23.397h-307.955v165.359h307.955v-165.359zM1000.411 448.59h-355.015c-12.974 0-23.589-10.497-23.589-23.589v-425.192c0-12.974 10.497-23.589 23.589-23.589h355.015c12.974 0 23.589 10.497 23.589 23.589v425.192c0 13.092-10.497 23.589-23.589 23.589zM976.94 401.412v-165.477h-307.837v165.477h307.837zM668.985 188.756h307.837v-165.359h-307.837v165.359zM649.052 535.987v360.205c0 12.974-10.497 23.589-23.589 23.589h-212.537c-12.974 0-23.589-10.497-23.589-23.589v-360.323c0-12.974 10.497-23.589 23.589-23.589h212.537c13.092 0.118 23.589 10.615 23.589 23.707zM601.992 559.458h-165.477v313.144h165.477v-313.144zM590.198 288.538c-9.907 8.374-24.768 7.077-33.261-2.713l-21.23-25.358v205.932c0 12.974-10.497 23.589-23.589 23.589-12.974 0-23.589-10.497-23.589-23.589v-206.876l-22.763 26.42c-8.374 9.907-23.471 10.851-33.261 2.477-9.907-8.492-10.969-23.353-2.477-33.261l64.162-74.423c0.236-0.236 0.354-0.354 0.59-0.59s0.472-0.472 0.708-0.708c0.354-0.354 0.59-0.59 0.944-0.944 0.118-0.118 0.236-0.236 0.472-0.354 0.118-0.118 0.354-0.236 0.472-0.354 0.354-0.236 0.59-0.472 0.944-0.708 0.236-0.118 0.354-0.236 0.59-0.354 0.472-0.354 0.944-0.59 1.415-0.944 0.118-0.118 0.236-0.118 0.354-0.236 0.472-0.236 0.944-0.472 1.415-0.708 0.118 0 0.236-0.118 0.354-0.118 0.472-0.236 1.062-0.472 1.533-0.59 0.118-0.118 0.354-0.118 0.472-0.236 0.472-0.236 1.062-0.354 1.533-0.472 0.118 0 0.236-0.118 0.472-0.118 0.472-0.118 0.944-0.236 1.415-0.354 0.118 0 0.236 0 0.354-0.118 0.59-0.118 1.179-0.118 1.651-0.236 0.118 0 0.236 0 0.354 0 0.59 0 1.179-0.118 1.769-0.118 0.826 0 1.533 0 2.359 0.118 0.118 0 0.354 0 0.472 0.118 0.59 0.118 1.297 0.118 1.887 0.354 0.236 0 0.354 0.118 0.59 0.118 0.59 0.118 1.179 0.236 1.651 0.472 0.236 0.118 0.59 0.118 0.826 0.236 0.118 0 0.236 0.118 0.472 0.118 0.354 0.118 0.708 0.236 1.062 0.472 0.236 0.118 0.59 0.236 0.826 0.354 0.59 0.236 1.062 0.59 1.651 0.826 0.354 0.236 0.59 0.354 0.944 0.59s0.59 0.354 0.944 0.59c0.354 0.236 0.59 0.472 0.944 0.708 0.472 0.354 0.944 0.826 1.415 1.179 0.354 0.236 0.59 0.59 0.826 0.826s0.472 0.472 0.708 0.708c0.236 0.236 0.354 0.354 0.59 0.59l62.865 74.423c8.374 9.907 7.077 24.768-2.831 33.261z" />
<glyph unicode="&#xe940;" glyph-name="delete-row" d="M932.119 484.438c-13.935 0-25.29-11.251-25.29-25.29v-472.763h-849.012v849.219h431.68c13.935 0 25.29 11.251 25.29 25.29s-11.251 25.29-25.29 25.29h-456.97c-13.935-0.103-25.29-11.355-25.29-25.393v-899.592c0-13.935 11.251-25.29 25.29-25.29h899.592c13.935 0 25.29 11.251 25.29 25.29v498.053c-0.103 13.935-11.355 25.187-25.29 25.187zM852.224 345.706c0 13.935-11.251 25.29-25.29 25.29h-33.651c-13.935 0-25.29-11.251-25.29-25.29 0-13.935 11.251-25.29 25.29-25.29h8.361v-75.766c0-13.935 11.251-25.29 25.29-25.29s25.29 11.251 25.29 25.29v101.056zM313.398 345.706c0 13.935-11.251 25.29-25.29 25.29h-101.056c-13.935 0-25.29-11.251-25.29-25.29 0-13.935 11.251-25.29 25.29-25.29h101.056c13.935 0.103 25.29 11.355 25.29 25.29zM168.679 69.48h101.056c13.935 0 25.29 11.251 25.29 25.29 0 13.935-11.251 25.29-25.29 25.29h-101.056c-13.935 0-25.29-11.251-25.29-25.29s11.251-25.29 25.29-25.29zM827.038 168.884c-13.935 0-25.29-11.251-25.29-25.29v-23.638h-26.838c-13.935 0-25.29-11.251-25.29-25.29 0-13.935 11.251-25.29 25.29-25.29h52.128c13.935 0 25.29 11.251 25.29 25.29v48.928c-0.103 14.038-11.355 25.29-25.29 25.29zM126.564 178.897c0-13.935 11.251-25.29 25.29-25.29s25.29 11.251 25.29 25.29v101.056c0 13.935-11.251 25.29-25.29 25.29s-25.29-11.251-25.29-25.29v-101.056zM717.518 345.706c0 13.935-11.251 25.29-25.29 25.29h-101.056c-13.935 0-25.29-11.251-25.29-25.29 0-13.935 11.251-25.29 25.29-25.29h101.056c14.038 0.103 25.29 11.355 25.29 25.29zM572.799 69.48h101.056c13.935 0 25.29 11.251 25.29 25.29 0 13.935-11.251 25.29-25.29 25.29h-101.056c-13.935 0-25.29-11.251-25.29-25.29s11.355-25.29 25.29-25.29zM370.687 69.48h101.056c13.935 0 25.29 11.251 25.29 25.29 0 13.935-11.251 25.29-25.29 25.29h-101.056c-13.935 0-25.29-11.251-25.29-25.29 0.103-14.038 11.355-25.29 25.29-25.29zM515.51 345.706c0 13.935-11.251 25.29-25.29 25.29h-101.056c-13.935 0-25.29-11.251-25.29-25.29 0-13.935 11.251-25.29 25.29-25.29h101.056c13.935 0.103 25.29 11.355 25.29 25.29zM765.517 457.6c138.526 0 251.246 112.72 251.246 251.246s-112.72 251.246-251.246 251.246-251.246-112.72-251.246-251.246 112.72-251.246 251.246-251.246zM765.517 909.512c110.655 0 200.666-90.011 200.666-200.666s-90.011-200.666-200.666-200.666-200.666 90.011-200.666 200.666 90.011 200.666 200.666 200.666zM672.616 616.254c4.955-4.955 11.355-7.432 17.858-7.432s12.903 2.477 17.858 7.432l57.186 57.289 57.186-57.289c4.955-4.955 11.355-7.432 17.858-7.432s12.903 2.477 17.858 7.432c9.909 9.909 9.909 25.806 0 35.715l-57.186 57.186 57.289 57.289c9.909 9.909 9.909 25.806 0 35.715s-25.806 9.909-35.715 0l-57.289-57.289-57.186 57.289c-9.909 9.909-25.806 9.909-35.715 0s-9.909-25.806 0-35.715l57.186-57.289-57.289-57.289c-9.806-9.806-9.806-25.806 0.103-35.612zM765.517 457.6h-600.966c-20.954 0-37.986 17.754-37.986 39.638v203.247c0 21.883 17.032 39.638 37.986 39.638h374.701l74.734-207.376 151.532-75.147z" />
<glyph unicode="&#xe941;" glyph-name="delete-col" d="M523.192 53.113h-472.725v849.094h848.992v-431.618c0-13.94 11.294-25.234 25.234-25.234s25.234 11.294 25.234 25.234v456.954c0 13.94-11.294 25.234-25.234 25.234h-899.459c-13.94 0-25.234-11.294-25.234-25.234v-899.561c0-13.94 11.294-25.234 25.234-25.234h497.959c13.94 0 25.234 11.294 25.234 25.234s-11.294 25.132-25.234 25.132zM133.393 132.986c0-13.94 11.294-25.234 25.234-25.234h48.941c13.94 0 25.234 11.294 25.234 25.234s-11.294 25.234-25.234 25.234h-23.707v26.76c0 13.94-11.294 25.234-25.234 25.234s-25.234-11.294-25.234-25.234v-51.994zM133.393 286.016c0-13.94 11.294-25.234 25.234-25.234s25.234 11.294 25.234 25.234v101.037c0 13.94-11.294 25.234-25.234 25.234s-25.234-11.294-25.234-25.234v-101.037zM133.393 488.089c0-13.94 11.294-25.234 25.234-25.234s25.234 11.294 25.234 25.234v101.037c0 13.94-11.294 25.234-25.234 25.234s-25.234-11.294-25.234-25.234v-101.037zM158.728 664.928c13.94 0 25.234 11.294 25.234 25.234v101.037c0 13.94-11.294 25.234-25.234 25.234s-25.234-11.294-25.234-25.234v-101.037c-0.102-13.94 11.294-25.234 25.234-25.234zM343.911 782.855c13.94 0 25.234 11.294 25.234 25.234s-11.294 25.234-25.234 25.234h-101.037c-13.94 0-25.234-11.294-25.234-25.234s11.294-25.234 25.234-25.234h101.037zM435.078 570.913c0 13.94-11.294 25.234-25.234 25.234s-25.234-11.294-25.234-25.234v-101.037c0-13.94 11.294-25.234 25.234-25.234s25.234 11.294 25.234 25.234v101.037zM308.706 107.65h101.037c13.94 0 25.234 11.294 25.234 25.234v33.781c0 13.94-11.294 25.234-25.234 25.234s-25.234-11.294-25.234-25.234v-8.445h-75.803c-13.94 0-25.234-11.294-25.234-25.234s11.294-25.335 25.234-25.335zM435.078 772.986c0 13.94-11.294 25.234-25.234 25.234s-25.234-11.294-25.234-25.234v-101.037c0-13.94 11.294-25.234 25.234-25.234s25.234 11.294 25.234 25.234v101.037zM435.078 368.839c0 13.94-11.294 25.234-25.234 25.234s-25.234-11.294-25.234-25.234v-101.037c0-13.94 11.294-25.234 25.234-25.234s25.234 11.294 25.234 25.234v101.037zM772.782 445.66c-138.582 0-251.218-112.636-251.218-251.218 0-138.48 112.636-251.218 251.218-251.218s251.218 112.636 251.218 251.218c0 138.48-112.636 251.218-251.218 251.218zM772.782-6.207c-110.703 0-200.75 89.946-200.75 200.649s90.149 200.649 200.75 200.649 200.75-90.048 200.75-200.75-90.048-200.547-200.75-200.547zM866.188 287.44c-9.87 9.87-25.844 9.87-35.714 0l-57.285-57.285-57.285 57.285c-9.87 9.87-25.844 9.87-35.714 0s-9.87-25.844 0-35.714l57.285-57.285-57.285-57.285c-9.87-9.87-9.87-25.844 0-35.714 4.884-4.884 11.396-7.428 17.908-7.428s12.922 2.442 17.908 7.428l57.285 57.285 57.285-57.285c4.884-4.884 11.396-7.428 17.908-7.428s12.922 2.442 17.908 7.428c9.87 9.87 9.87 25.844 0 35.714l-57.285 57.285 57.285 57.285c9.666 9.87 9.666 25.844-0.203 35.714zM521.564 200.852v600.928c0 20.96 17.704 38.054 39.58 38.054h203.192c21.876 0 39.58-16.992 39.58-38.054v-374.741l-207.161-74.684-75.192-151.504z" />
<glyph unicode="&#xe942;" glyph-name="merge-cells" d="M999.432 939.363h-974.864c-13.635 0-24.568-11.056-24.568-24.568v-933.589c0-13.635 11.056-24.568 24.568-24.568h974.864c13.635 0 24.568 11.056 24.568 24.568v933.589c0 13.512-11.056 24.568-24.568 24.568zM974.741 726.726h-327.125v163.378h327.125v-163.378zM278.603 890.104h319.877v-163.378h-327.125v163.378h7.248zM49.259 677.466h172.837v-311.155h-172.837v311.155zM222.096 890.104v-163.378h-172.837v163.378h172.837zM49.259 317.052h172.837v-311.155h-172.837v311.155zM974.741 5.896h-703.386v671.57h703.386v-671.57z" />
<glyph unicode="&#xe943;" glyph-name="merge-right-cell" d="M984.2 924.1h-944.4c-13.2 0-23.8-10.7-23.8-23.8v-904.4c0-13.2 10.7-23.8 23.8-23.8h944.5c13.2 0 23.8 10.7 23.8 23.8v904.3c0 13.2-10.7 23.9-23.9 23.9zM619.6 670.3h125.6v-114c0-13.2 10.7-23.8 23.8-23.8 13.2 0 23.8 10.7 23.8 23.8v114h167.5v-444.7h-167.4v112.7c0 13.2-10.7 23.8-23.8 23.8-13.2 0-23.8-10.7-23.8-23.8v-112.6h-466.5v444.6h340.8zM231.1 225.7h-167.5v444.6h167.5v-444.6zM63.6 178h167.5v-158.3h-167.5v158.3zM278.8 178h466.4v-158.3h-466.4v158.3zM792.9 178h167.5v-158.3h-167.5v158.3zM960.4 718h-167.5v158.3h167.5v-158.3zM285.9 876.4h459.3v-158.4h-466.4v158.3h7.1zM231.1 876.4v-158.4h-167.5v158.3h167.5zM495.5 424.8h209.4l-26.7-23c-10-8.6-11.1-23.7-2.5-33.6 4.8-5.5 11.4-8.3 18.1-8.3 5.5 0 11.1 1.9 15.6 5.8l75.3 64.9c0.6 0.5 0.7 1.4 1.2 2 0.4 0.4 1 0.2 1.4 0.7 0.8 1 0.4 2.3 1.1 3.4 2.1 3.5 3.4 7 3.5 11 0.1 1.9 0.1 3.5-0.3 5.4-0.2 1.3 0.3 2.6-0.2 3.9-1.1 2.9-3.4 4.8-5.5 7-0.8 0.9-0.6 2.1-1.5 2.9l-75.3 63.7c-10.1 8.3-25.1 7.2-33.6-2.8-8.5-10.1-7.3-25.1 2.8-33.6l25.5-21.6h-208.3c-13.2 0-23.8-10.7-23.8-23.8-0.1-13.4 10.6-24 23.8-24z" />
<glyph unicode="&#xe944;" glyph-name="merge-down-cell" d="M999.432 939.363h-974.864c-13.635 0-24.568-11.056-24.568-24.568v-933.589c0-13.635 11.056-24.568 24.568-24.568h974.864c13.635 0 24.568 11.056 24.568 24.568v933.589c0 13.512-10.933 24.568-24.568 24.568zM974.864 5.896h-172.96v163.378h172.837v-163.378zM222.096 218.534h-172.96v458.933h172.96v-458.933zM49.136 169.274h172.96v-163.378h-172.96v163.378zM271.232 169.274h121.612c13.635 0 24.568 11.056 24.568 24.568 0 13.635-11.056 24.568-24.568 24.568h-121.612v459.056h481.536v-458.933h-129.72c-13.635 0-24.568-11.056-24.568-24.568 0-13.635 11.056-24.568 24.568-24.568h129.597v-163.378h-481.413v163.255zM974.864 218.534h-172.96v458.933h172.837v-458.933zM974.864 726.726h-172.96v163.378h172.837v-163.378zM278.603 890.104h474.042v-163.378h-481.413v163.378h7.37zM222.096 890.104v-163.378h-172.96v163.378h172.96zM594.303 287.693c-10.319 8.722-25.919 7.37-34.764-2.825l-22.357-26.411v215.094c0 13.635-11.056 24.568-24.568 24.568-13.635 0-24.568-11.056-24.568-24.568v-216.077l-23.708 27.516c-8.845 10.319-24.445 11.301-34.764 2.58-10.319-8.845-11.424-24.445-2.58-34.764l66.948-77.635c0.123-0.123 0.246-0.246 0.369-0.369 0.369-0.369 0.737-0.737 1.106-1.106 0.246-0.246 0.614-0.491 0.86-0.737 0.123-0.123 0.369-0.369 0.491-0.491s0.369-0.246 0.491-0.369 0.614-0.491 0.983-0.737c0.246-0.123 0.369-0.246 0.614-0.369 0.491-0.369 0.983-0.614 1.474-0.983 0.123-0.123 0.246-0.123 0.369-0.246 0.491-0.246 0.983-0.491 1.474-0.737 0.123 0 0.246-0.123 0.369-0.123 0.491-0.246 1.106-0.491 1.597-0.614 0.123-0.123 0.369-0.123 0.491-0.246 0.491-0.246 1.106-0.369 1.597-0.491 0.123 0 0.246-0.123 0.369-0.123 0.491-0.123 0.983-0.246 1.474-0.369 0.123 0 0.246 0 0.491-0.123 0.614-0.123 1.228-0.123 1.72-0.246 0.123 0 0.246 0 0.491 0 0.614 0 1.228-0.123 1.843-0.123s1.228 0 1.843 0.123c0.123 0 0.369 0 0.491 0 0.491 0 1.106 0.123 1.597 0.246 0.246 0 0.491 0.123 0.737 0.123 0.369 0.123 0.86 0.123 1.228 0.246 0.246 0.123 0.491 0.123 0.737 0.246 0.614 0.123 1.106 0.369 1.72 0.491 0 0 0.123 0 0.123 0s0 0 0.123 0c3.808 1.474 7.37 3.808 10.196 7.125l65.72 77.635c8.845 10.564 7.493 26.042-2.825 34.887z" />
<glyph unicode="&#xe945;" glyph-name="split-to-cells" d="M265.354 921.636h-241.673c-13.143 0-23.682-10.538-23.682-23.682v-213.61c0-13.143 10.538-23.682 23.682-23.682h241.673c13.143 0 23.682 10.538 23.682 23.682v213.61c0 13.143-10.538 23.682-23.682 23.682zM241.673 708.026h-194.309v166.246h194.309v-166.246zM265.354 578.487h-241.673c-13.143 0-23.682-10.538-23.682-23.682v-213.61c0-13.143 10.538-23.682 23.682-23.682h241.673c13.143 0 23.682 10.538 23.682 23.682v213.61c0 13.025-10.538 23.682-23.682 23.682zM241.673 364.877h-194.309v166.246h194.309v-166.246zM265.354 235.338h-241.673c-13.143 0-23.682-10.538-23.682-23.682v-213.61c0-13.143 10.538-23.682 23.682-23.682h241.673c13.143 0 23.682 10.538 23.682 23.682v213.61c0 13.143-10.538 23.682-23.682 23.682zM241.673 21.728h-194.309v166.246h194.309v-166.246zM632.777 921.636h-241.554c-13.143 0-23.682-10.538-23.682-23.682v-213.61c0-13.143 10.538-23.682 23.682-23.682h241.554c13.143 0 23.682 10.538 23.682 23.682v213.61c0 13.143-10.538 23.682-23.682 23.682zM609.095 708.026h-194.191v166.246h194.191v-166.246zM632.777 578.487h-241.554c-13.143 0-23.682-10.538-23.682-23.682v-213.61c0-13.143 10.538-23.682 23.682-23.682h241.554c13.143 0 23.682 10.538 23.682 23.682v213.61c0 13.025-10.538 23.682-23.682 23.682zM609.095 364.877h-194.191v166.246h194.191v-166.246zM632.777 235.338h-241.554c-13.143 0-23.682-10.538-23.682-23.682v-213.61c0-13.143 10.538-23.682 23.682-23.682h241.554c13.143 0 23.682 10.538 23.682 23.682v213.61c0 13.143-10.538 23.682-23.682 23.682zM609.095 21.728h-194.191v166.246h194.191v-166.246zM1000.318 921.636h-241.673c-13.143 0-23.682-10.538-23.682-23.682v-213.61c0-13.143 10.538-23.682 23.682-23.682h241.673c13.143 0 23.682 10.538 23.682 23.682v213.61c0 13.143-10.657 23.682-23.682 23.682zM976.636 708.026h-194.309v166.246h194.309v-166.246zM1000.318 578.487h-241.673c-13.143 0-23.682-10.538-23.682-23.682v-213.61c0-13.143 10.538-23.682 23.682-23.682h241.673c13.143 0 23.682 10.538 23.682 23.682v213.61c0 13.025-10.657 23.682-23.682 23.682zM976.636 364.877h-194.309v166.246h194.309v-166.246zM1000.318 235.338h-241.673c-13.143 0-23.682-10.538-23.682-23.682v-213.61c0-13.143 10.538-23.682 23.682-23.682h241.673c13.143 0 23.682 10.538 23.682 23.682v213.61c0 13.143-10.657 23.682-23.682 23.682zM976.636 21.728h-194.309v166.246h194.309v-166.246z" />
<glyph unicode="&#xe946;" glyph-name="split-to-rows" d="M999.432 939.363h-974.864c-13.635 0-24.568-11.056-24.568-24.568v-933.589c0-13.635 11.056-24.568 24.568-24.568h974.741c13.635 0 24.568 11.056 24.568 24.568v933.589c0.123 13.512-10.933 24.568-24.445 24.568zM282.534 218.534v204.898h89.305c13.635 0 24.568 11.056 24.568 24.568 0 13.635-11.056 24.568-24.568 24.568h-89.305v204.898h458.933v-204.898h-74.196c-13.635 0-24.568-11.056-24.568-24.568 0-13.635 11.056-24.568 24.568-24.568h74.196v-204.898h-458.933zM741.466 169.274v-163.378h-458.933v163.378h458.933zM49.259 677.466h184.138v-458.933h-184.138v458.933zM282.534 726.726v163.378h458.933v-163.378h-458.933zM790.726 677.466h184.138v-458.933h-184.138v458.933zM974.741 726.726h-184.015v163.378h184.138v-163.378zM233.274 890.104v-163.378h-184.015v163.378h184.015zM49.259 169.274h184.138v-163.378h-184.138v163.378zM790.726 5.896v163.378h184.138v-163.378h-184.138zM568.752 472.568h-98.518c-13.635 0-24.568-11.056-24.568-24.568 0-13.635 11.056-24.568 24.568-24.568h98.518c13.635 0 24.568 11.056 24.568 24.568 0.123 13.635-10.933 24.568-24.568 24.568z" />
<glyph unicode="&#xe947;" glyph-name="split-to-cols" d="M999.432 939.363h-974.864c-13.635 0-24.568-11.056-24.568-24.568v-933.589c0-13.635 11.056-24.568 24.568-24.568h974.741c13.635 0 24.568 11.056 24.568 24.568v933.589c0.123 13.512-10.933 24.568-24.445 24.568zM741.466 170.871v-164.975h-458.933v164.975h458.933zM534.48 220.008v91.516c0 13.635-11.056 24.568-24.568 24.568-13.635 0-24.568-11.056-24.568-24.568v-91.516h-202.687v458.933h202.687v-72.107c0-13.635 11.056-24.568 24.568-24.568 13.635 0 24.568 11.056 24.568 24.568v72.107h206.987v-458.933h-206.987zM49.259 678.941h184.138v-458.933h-184.138v458.933zM282.534 728.2v161.904h458.933v-161.904h-458.933zM790.726 678.941h184.138v-458.933h-184.138v458.933zM974.741 728.2h-184.015v161.904h184.138v-161.904zM233.274 890.104v-161.904h-184.015v161.904h184.015zM49.259 170.871h184.138v-164.975h-184.138v164.975zM790.726 5.896v164.975h184.138v-164.975h-184.138zM509.789 533.129c-13.635 0-24.568-11.056-24.568-24.568v-98.518c0-13.635 11.056-24.568 24.568-24.568 13.635 0 24.568 11.056 24.568 24.568v98.518c0.123 13.512-10.933 24.568-24.568 24.568z" />
<glyph unicode="&#xe948;" glyph-name="charts" d="M999.432 743.063h-233.52c-13.635 0-24.568-11.056-24.568-24.568v-737.29c0-13.635 11.056-24.568 24.568-24.568h233.52c13.635 0 24.568 11.056 24.568 24.568v737.167c0 13.635-11.056 24.691-24.568 24.691zM974.741 5.896h-184.261v687.908h184.261v-687.908zM621.451 939.363h-233.52c-13.635 0-24.568-11.056-24.568-24.568v-933.589c0-13.635 11.056-24.568 24.568-24.568h233.52c13.635 0 24.568 11.056 24.568 24.568v933.589c0 13.512-10.933 24.568-24.568 24.568zM596.883 5.896h-184.384v884.207h184.261v-884.207zM258.088 342.234h-233.52c-13.635 0-24.568-11.056-24.568-24.568v-336.461c0-13.635 11.056-24.568 24.568-24.568h233.52c13.635 0 24.568 11.056 24.568 24.568v336.461c0.123 13.635-10.933 24.568-24.568 24.568zM233.52 5.896h-184.261v287.202h184.261v-287.202z" />
<glyph unicode="&#xe949;" glyph-name="print" d="M999.395 742.453h-209.449v175.447c0 13.601-11.004 24.605-24.605 24.605h-506.683c-13.601 0-24.605-11.004-24.605-24.605v-175.447h-209.449c-13.601 0-24.605-11.004-24.605-24.605v-542.167c0-13.601 11.004-24.605 24.605-24.605h209.325v-172.975c0-13.601 11.004-24.605 24.605-24.605h506.807c13.601 0 24.605 11.004 24.605 24.605v172.851h209.325c13.601 0 24.605 11.004 24.605 24.605v542.29c0.124 13.601-10.88 24.605-24.481 24.605zM283.263 893.296h457.474v-150.843h-457.474v150.843zM740.737 2.582h-457.474v419.516h457.474v-419.516zM974.791 200.161h-184.844v246.541c0 13.601-11.004 24.605-24.605 24.605h-506.683c-13.601 0-24.605-11.004-24.605-24.605v-246.541h-184.844v492.959h925.579v-492.959zM381.929 303.526h104.354c13.601 0 24.605 11.004 24.605 24.605s-11.004 24.605-24.605 24.605h-104.354c-13.601 0-24.605-11.004-24.605-24.605s11.004-24.605 24.605-24.605zM641.206 235.646h-259.277c-13.601 0-24.605-11.004-24.605-24.605s11.004-24.605 24.605-24.605h259.4c13.601 0 24.605 11.004 24.605 24.605-0.124 13.601-11.128 24.605-24.728 24.605zM604.484 118.681h-222.555c-13.601 0-24.605-11.004-24.605-24.605s11.004-24.605 24.605-24.605h222.555c13.601 0 24.605 11.004 24.605 24.605s-11.004 24.605-24.605 24.605z" />
<glyph unicode="&#xe94a;" glyph-name="preview" d="M1002.446 881.256h-980.892c-11.915 0-21.554-9.64-21.554-21.554v-823.404c0-11.915 9.64-21.554 21.554-21.554h980.784c11.915 0 21.554 9.64 21.554 21.554v823.404c0.108 11.915-9.532 21.554-21.446 21.554zM980.783 57.853h-937.566v780.295h937.675v-780.295zM512 272.423c96.833 0 175.577 78.744 175.577 175.577s-78.744 175.577-175.577 175.577-175.577-78.744-175.577-175.577c0-96.833 78.744-175.577 175.577-175.577zM512 580.468c73.004 0 132.468-59.356 132.468-132.468s-59.464-132.468-132.468-132.468-132.468 59.464-132.468 132.468 59.464 132.468 132.468 132.468zM512 168.008c232.875 0 416.25 256.596 423.941 267.535 5.199 7.474 5.199 17.439 0 24.804-7.69 10.94-191.066 267.535-423.941 267.535s-416.25-256.596-424.049-267.535c-5.199-7.474-5.199-17.439 0-24.804 7.799-10.831 191.174-267.535 424.049-267.535zM512 684.774c182.942 0 340.214-186.408 379.315-236.774-39.101-50.366-196.157-236.774-379.315-236.774-182.834 0-340.214 186.408-379.315 236.883 39.101 50.366 196.481 236.666 379.315 236.666z" />
<glyph unicode="&#xe94b;" glyph-name="searchreplace" d="M275.586 350.069c-58.416 3.207-107.554-40.548-110.991-98.277-1.718-27.948 7.56-54.865 26.115-75.826s44.213-33.446 72.161-35.164c2.176-0.115 4.353-0.229 6.529-0.229 25.543 0 49.94 9.163 69.298 26.345 20.961 18.556 33.446 44.098 35.164 72.161 3.436 57.614-40.662 107.44-98.277 110.991zM308.116 201.508c-11.683-10.423-26.345-16.15-42.495-14.661-15.578 0.916-30.010 8.018-40.433 19.701-10.423 11.798-15.578 26.803-14.661 42.495 1.947 31.155 27.834 55.094 58.645 55.094 1.145 0 2.405 0 3.551-0.115 32.301-1.947 56.927-29.895 54.98-62.196-0.916-15.692-7.903-30.010-19.587-40.319zM1001.893 327.046c-0.229 1.031 0.344 1.947 0 2.978l-9.736 22.908c-1.604 3.436-2.749 7.102-4.467 10.423l-106.753 250.387c-0.115 0.458 0.229 0.916 0 1.374l-74.452 187.848c-15.234 39.975-54.407 76.514-97.475 90.831-53.491 17.754-127.141-2.749-146.498-11.798-14.661-6.872-35.393-24.855-50.398-47.764-15.119 23.023-35.737 40.891-50.398 47.764-19.243 9.049-92.893 29.552-146.498 11.798-43.182-14.318-82.355-50.856-97.36-90.602l-74.452-188.192c-0.115-0.344 0.115-0.802 0-1.145l-106.982-250.96c-2.176-4.353-3.78-8.934-5.727-13.287l-8.247-19.472c-0.458-1.031 0.229-1.947 0-2.978-6.987-21.19-12.256-42.953-13.63-65.747-8.82-143.635 100.796-267.683 244.431-276.503 5.383-0.344 10.767-0.458 16.036-0.458 54.407 0 105.034 17.525 147.186 46.618v0h188.764c0.573 0 0.916 0.573 1.489 0.573 42.38-29.437 93.237-47.191 147.987-47.191 5.269 0 10.767 0.229 16.036 0.458 143.635 8.82 253.251 132.753 244.546 276.388-1.26 23.137-6.529 44.786-13.401 65.747zM189.565 604.58c11.912 30.583 49.367 79.835 88.541 92.549 47.191 15.234 128.057-2.52 148.217-13.86 24.741-13.86 59.562-53.147 57.729-84.532v-207.091c-6.185 9.049-11.912 18.327-19.357 26.688-46.16 52.116-109.96 83.272-179.486 87.51-55.553 3.551-108.929-11.225-154.745-40.433l59.103 139.168zM512.114 153.401c10.767-28.177 25.886-53.72 45.015-76.285h-90.030c19.128 22.45 34.248 48.107 45.015 76.285zM540.177 391.533l-0.115 180.403c0 0 0 0 0 0.115v28.406c-1.604 30.010 32.988 69.068 57.729 82.928 20.159 11.225 101.255 28.864 148.102 13.86 39.288-12.714 76.743-61.967 88.884-93.237l58.989-138.366c-44.671 28.177-97.933 43.755-154.745 40.433-83.501-5.269-154.86-50.169-198.844-114.541zM581.984 840.191c14.203 6.643 75.139 22.45 112.365 9.851 35.279-11.683 60.478-41.12 69.068-63.8l23.481-59.332c-8.705 5.269-17.296 10.996-26.688 13.974-60.363 19.587-154.058-0.115-184.755-17.41-11.111-6.185-23.366-16.609-35.279-28.521v84.875c-1.489 24.168 26.688 53.262 41.808 60.363zM260.81 786.586c8.476 22.336 33.675 51.773 68.954 63.456 37.455 12.6 98.162-3.207 112.251-9.736 15.234-7.216 43.411-36.31 41.922-61.852v-83.501c-11.912 12.027-24.168 22.45-35.164 28.635-30.812 17.181-124.392 36.882-184.87 17.296-9.392-2.978-17.983-8.705-26.688-13.974l23.596 59.676zM255.999 30.956c-118.207 7.216-208.465 109.272-201.249 227.594 1.489 24.741 7.903 47.993 16.952 69.641l5.613 13.172c35.508 70.787 108.7 118.894 191.742 118.894 4.353 0 8.82-0.115 13.172-0.458 57.271-3.551 109.731-29.094 147.758-72.047s57.042-98.162 53.605-155.433c-7.216-118.207-108.242-207.893-227.594-201.364zM768.114 30.956c-119.352-6.529-220.263 83.157-227.594 201.364-7.216 118.207 83.043 220.263 201.364 227.594 87.739 4.811 166.772-43.755 204.456-117.519l3.78-8.934c10.538-23.023 17.639-48.107 19.243-74.91 7.331-118.207-83.043-220.263-201.249-227.594zM748.642 350.069c-57.729-3.551-101.713-53.376-98.277-110.991 1.718-27.948 14.203-53.605 35.164-72.161 19.357-17.067 43.64-26.345 69.298-26.345 2.176 0 4.353 0 6.529 0.229 27.948 1.718 53.605 14.203 72.161 35.164s27.834 47.878 26.115 75.826c-3.436 57.614-53.262 101.598-110.991 98.277zM799.040 206.548c-10.423-11.683-24.741-18.785-40.433-19.701-15.578-1.374-30.697 4.238-42.495 14.661-11.798 10.309-18.785 24.741-19.701 40.319-1.947 32.301 22.679 60.249 54.98 62.196 1.26 0.115 2.405 0.115 3.551 0.115 30.812 0 56.698-24.054 58.645-55.094 1.031-15.692-4.238-30.812-14.547-42.495z" />
</font>
</defs>
</svg>
